Kanchenjunga-Regular.ufo
<glyph name="plus" format="2">
  <advance width="1200"/>
  <unicode hex="002B"/>
  <outline>
    <contour>
      <point x="525" y="1180" type="line"/>
      <point x="525" y="285" type="line"/>
      <point x="675" y="285" type="line"/>
      <point x="675" y="1180" type="line"/>
    </contour>
    <contour>
      <point x="155" y="660" type="line"/>
      <point x="1045" y="660" type="line"/>
      <point x="1045" y="810" type="line"/>
      <point x="155" y="810" type="line"/>
    </contour>
  </outline>
</glyph>
<glyph name="hyphen" format="2">
  <advance width="860"/>
  <unicode hex="002D"/>
  <anchor x="430" y="1100" name="U"/>
  <outline>
    <contour>
      <point x="80" y="555" type="line"/>
      <point x="780" y="555" type="line"/>
      <point x="780" y="705" type="line"/>
      <point x="80" y="705" type="line"/>
    </contour>
  </outline>
</glyph>
<glyph name="greater" format="2">
  <advance width="1200"/>
  <unicode hex="003E"/>
  <outline>
    <contour>
      <point x="120" y="245" type="line"/>
      <point x="1100" y="645" type="line"/>
      <point x="1100" y="815" type="line"/>
      <point x="120" y="1215" type="line"/>
      <point x="120" y="1035" type="line"/>
      <point x="910" y="730" type="line"/>
      <point x="120" y="425" type="line"/>
    </contour>
  </outline>
</glyph>
<glyph name="bracketleft" format="2">
  <advance width="790"/>
  <unicode hex="005B"/>
  <outline>
    <contour>
      <point x="640" y="-410" type="line"/>
      <point x="640" y="-260" type="line"/>
      <point x="385" y="-260" type="line"/>
      <point x="385" y="1450" type="line"/>
      <point x="640" y="1450" type="line"/>
      <point x="640" y="1600" type="line"/>
      <point x="200" y="1600" type="line"/>
      <point x="200" y="-410" type="line"/>
    </contour>
  </outline>
</glyph>
<glyph name="bracketright" format="2">
  <advance width="790"/>
  <unicode hex="005D"/>
  <outline>
    <contour>
      <point x="590" y="-410" type="line"/>
      <point x="590" y="1600" type="line"/>
      <point x="150" y="1600" type="line"/>
      <point x="150" y="1450" type="line"/>
      <point x="405" y="1450" type="line"/>
      <point x="405" y="-260" type="line"/>
      <point x="150" y="-260" type="line"/>
      <point x="150" y="-410" type="line"/>
    </contour>
  </outline>
</glyph>
<glyph name="brokenbar" format="2">
  <advance width="1024"/>
  <unicode hex="00A6"/>
  <outline>
    <contour>
      <point x="440" y="445" type="line"/>
      <point x="440" y="-390" type="line"/>
      <point x="590" y="-390" type="line"/>
      <point x="590" y="445" type="line"/>
    </contour>
    <contour>
      <point x="590" y="775" type="line"/>
      <point x="590" y="1600" type="line"/>
      <point x="440" y="1600" type="line"/>
      <point x="440" y="775" type="line"/>
    </contour>
  </outline>
</glyph>
<glyph name="macron" format="2">
  <advance width="710"/>
  <unicode hex="00AF"/>
  <outline>
    <contour>
      <point x="0" y="1240" type="line"/>
      <point x="710" y="1240" type="line"/>
      <point x="710" y="1390" type="line"/>
      <point x="0" y="1390" type="line"/>
    </contour>
  </outline>
</glyph>
<glyph name="acute" format="2">
  <advance width="580"/>
  <unicode hex="00B4"/>
  <anchor x="180" y="1635" name="U"/>
  <outline>
    <contour>
      <point x="350" y="1600" type="line"/>
      <point x="0" y="1170" type="line"/>
      <point x="160" y="1170" type="line"/>
      <point x="580" y="1600" type="line"/>
    </contour>
  </outline>
</glyph>
<glyph name="gravecomb" format="2">
  <unicode hex="0300"/>
  <anchor x="-550" y="1635" name="U"/>
  <anchor x="-550" y="1100" name="_U"/>
  <outline>
    <contour>
      <point x="-940" y="1600" type="line"/>
      <point x="-520" y="1170" type="line"/>
      <point x="-360" y="1170" type="line"/>
      <point x="-710" y="1600" type="line"/>
    </contour>
  </outline>
</glyph>
<glyph name="caroncomb" format="2">
  <unicode hex="030C"/>
  <anchor x="-570" y="1635" name="U"/>
  <anchor x="-570" y="1100" name="_U"/>
  <outline>
    <contour>
      <point x="-995" y="1600" type="line"/>
      <point x="-655" y="1170" type="line"/>
      <point x="-485" y="1170" type="line"/>
      <point x="-145" y="1600" type="line"/>
      <point x="-295" y="1600" type="line"/>
      <point x="-570" y="1320" type="line"/>
      <point x="-845" y="1600" type="line"/>
    </contour>
  </outline>
</glyph>
<glyph name="endash" format="2">
  <advance width="1055"/>
  <unicode hex="2013"/>
  <outline>
    <contour>
      <point x="80" y="555" type="line"/>
      <point x="975" y="555" type="line"/>
      <point x="975" y="705" type="line"/>
      <point x="80" y="705" type="line"/>
    </contour>
  </outline>
</glyph>
<glyph name="guilsinglright" format="2">
  <advance width="790"/>
  <unicode hex="203A"/>
  <outline>
    <contour>
      <point x="240" y="0" type="line"/>
      <point x="675" y="510" type="line"/>
      <point x="240" y="1020" type="line"/>
      <point x="75" y="1020" type="line"/>
      <point x="445" y="510" type="line"/>
      <point x="75" y="0" type="line"/>
    </contour>
  </outline>
</glyph>
<glyph name="fraction" format="2">
  <advance width="1200"/>
  <unicode hex="2044"/>
  <outline>
    <contour>
      <point x="1040" y="1600" type="line"/>
      <point x="10" y="-245" type="line"/>
      <point x="161" y="-245" type="line"/>
      <point x="1190" y="1600" type="line"/>
    </contour>
  </outline>
</glyph>
<glyph name="minus" format="2">
  <advance width="1200"/>
  <unicode hex="2212"/>
  <outline>
    <contour>
      <point x="155" y="650" type="line"/>
      <point x="1045" y="650" type="line"/>
      <point x="1045" y="800" type="line"/>
      <point x="155" y="800" type="line"/>
    </contour>
  </outline>
</glyph>
<glyph name="blank" format="2">
  <advance width="455"/>
  <unicode hex="2423"/>
  <outline>
    <contour>
      <point x="455" y="-255" type="line"/>
      <point x="455" y="0" type="line"/>
      <point x="375" y="0" type="line"/>
      <point x="375" y="-175" type="line"/>
      <point x="80" y="-175" type="line"/>
      <point x="80" y="0" type="line"/>
      <point x="0" y="0" type="line"/>
      <point x="0" y="-255" type="line"/>
    </contour>
  </outline>
</glyph>
<glyph name="ca-kirat.alt" format="2">
  <advance width="1547"/>
  <unicode hex="E049"/>
  <outline>
    <contour>
      <point x="1252" y="0" type="curve"/>
      <point x="1447" y="0" type="line"/>
      <point x="1434" y="487"/>
      <point x="1434" y="973"/>
      <point x="1447" y="1460" type="curve"/>
      <point x="1252" y="1460" type="line"/>
      <point x="1258" y="1428"/>
      <point x="1260" y="1359"/>
      <point x="1260" y="1281" type="curve" smooth="yes"/>
      <point x="1260" y="1164"/>
      <point x="1256" y="1028"/>
      <point x="1257" y="975" type="curve" smooth="yes"/>
      <point x="1267" y="435" type="line" smooth="yes"/>
      <point x="1268" y="388"/>
      <point x="1268" y="343"/>
      <point x="1268" y="301" type="curve" smooth="yes"/>
      <point x="1268" y="167"/>
      <point x="1263" y="61"/>
    </contour>
    <contour>
      <point x="1043" y="866" type="curve"/>
      <point x="1089" y="1043" type="line"/>
      <point x="940" y="1037"/>
      <point x="944" y="1034"/>
      <point x="840" y="1034" type="curve" smooth="yes"/>
      <point x="691" y="1034"/>
      <point x="554" y="1035"/>
      <point x="454" y="1038" type="curve" smooth="yes"/>
      <point x="326" y="1041"/>
      <point x="277" y="1104"/>
      <point x="277" y="1160" type="curve" smooth="yes"/>
      <point x="277" y="1226"/>
      <point x="321" y="1259"/>
      <point x="366" y="1259" type="curve" smooth="yes"/>
      <point x="415" y="1259"/>
      <point x="465" y="1222"/>
      <point x="465" y="1146" type="curve" smooth="yes"/>
      <point x="465" y="914"/>
      <point x="92" y="793"/>
      <point x="92" y="429" type="curve" smooth="yes"/>
      <point x="92" y="213"/>
      <point x="266" y="-5"/>
      <point x="559" y="-5" type="curve" smooth="yes"/>
      <point x="967" y="-5"/>
      <point x="1303" y="483"/>
      <point x="1327" y="892" type="curve"/>
      <point x="1259" y="1374" type="line"/>
      <point x="1264" y="878"/>
      <point x="966" y="180"/>
      <point x="578" y="180" type="curve" smooth="yes"/>
      <point x="360" y="180"/>
      <point x="281" y="323"/>
      <point x="281" y="456" type="curve" smooth="yes"/>
      <point x="281" y="703"/>
      <point x="645" y="880"/>
      <point x="645" y="1162" type="curve" smooth="yes"/>
      <point x="645" y="1324"/>
      <point x="522" y="1431"/>
      <point x="373" y="1431" type="curve" smooth="yes"/>
      <point x="190" y="1431"/>
      <point x="90" y="1296"/>
      <point x="90" y="1158" type="curve" smooth="yes"/>
      <point x="90" y="1015"/>
      <point x="187" y="875"/>
      <point x="417" y="867" type="curve" smooth="yes"/>
      <point x="510" y="864"/>
      <point x="642" y="855"/>
      <point x="777" y="855" type="curve" smooth="yes"/>
      <point x="904" y="855"/>
      <point x="881" y="859"/>
    </contour>
  </outline>
</glyph>
<glyph name="ma-kirat.alt" format="2">
  <advance width="1564"/>
  <unicode hex="E05B"/>
  <outline>
    <contour>
      <point x="1511" y="566"/>
      <point x="1065" y="740"/>
      <point x="662" y="916" type="curve" smooth="yes"/>
      <point x="351" y="1052"/>
      <point x="236" y="1091"/>
      <point x="236" y="1209" type="curve" smooth="yes"/>
      <point x="236" y="1318"/>
      <point x="431" y="1372"/>
      <point x="431" y="1133" type="curve" smooth="yes"/>
      <point x="431" y="744"/>
      <point x="356" y="337"/>
      <point x="286" y="0" type="curve"/>
      <point x="481" y="0" type="line"/>
      <point x="573" y="505"/>
      <point x="617" y="847"/>
      <point x="617" y="1143" type="curve" smooth="yes"/>
      <point x="617" y="1397"/>
      <point x="477" y="1489"/>
      <point x="335" y="1489" type="curve" smooth="yes"/>
      <point x="193" y="1489"/>
      <point x="50" y="1395"/>
      <point x="50" y="1201" type="curve" smooth="yes"/>
      <point x="50" y="946"/>
      <point x="265" y="882"/>
      <point x="573" y="751" type="curve" smooth="yes"/>
      <point x="801" y="654"/>
      <point x="1329" y="440"/>
      <point x="1329" y="262" type="curve" smooth="yes"/>
      <point x="1329" y="203"/>
      <point x="1281" y="165"/>
      <point x="1244" y="165" type="curve" smooth="yes"/>
      <point x="1186" y="165"/>
      <point x="1141" y="215"/>
      <point x="1141" y="308" type="curve" smooth="yes"/>
      <point x="1141" y="652"/>
      <point x="1214" y="1151"/>
      <point x="1265" y="1360" type="curve"/>
      <point x="1183" y="1294" type="line"/>
      <point x="1353" y="1294"/>
      <point x="1399" y="1294"/>
      <point x="1514" y="1266" type="curve"/>
      <point x="1514" y="1460" type="line"/>
      <point x="1225" y="1460" type="line"/>
      <point x="1095" y="1460" type="line"/>
      <point x="990" y="978"/>
      <point x="940" y="481"/>
      <point x="940" y="298" type="curve" smooth="yes"/>
      <point x="940" y="74"/>
      <point x="1090" y="-18"/>
      <point x="1232" y="-18" type="curve" smooth="yes"/>
      <point x="1365" y="-18"/>
      <point x="1511" y="76"/>
      <point x="1511" y="270" type="curve" smooth="yes"/>
    </contour>
  </outline>
</glyph>
<glyph name="a-kirat" format="2">
  <advance width="1460"/>
  <unicode hex="16D43"/>
  <outline>
    <contour>
      <point x="373" y="735" type="curve"/>
      <point x="393" y="930" type="line"/>
      <point x="407" y="929"/>
      <point x="420" y="929"/>
      <point x="432" y="929" type="curve" smooth="yes"/>
      <point x="660" y="929"/>
      <point x="713" y="1044"/>
      <point x="713" y="1142" type="curve" smooth="yes"/>
      <point x="713" y="1228"/>
      <point x="639" y="1307"/>
      <point x="527" y="1307" type="curve" smooth="yes"/>
      <point x="423" y="1307"/>
      <point x="328" y="1239"/>
      <point x="308" y="1076" type="curve"/>
      <point x="120" y="1076" type="line"/>
      <point x="140" y="1266"/>
      <point x="257" y="1492"/>
      <point x="538" y="1492" type="curve" smooth="yes"/>
      <point x="777" y="1492"/>
      <point x="904" y="1326"/>
      <point x="904" y="1153" type="curve" smooth="yes"/>
      <point x="904" y="987"/>
      <point x="787" y="814"/>
      <point x="584" y="777" type="curve"/>
      <point x="684" y="909" type="line"/>
      <point x="872" y="880"/>
      <point x="1060" y="716"/>
      <point x="1060" y="477" type="curve" smooth="yes"/>
      <point x="1060" y="165"/>
      <point x="800" y="-5"/>
      <point x="520" y="-5" type="curve" smooth="yes"/>
      <point x="278" y="-5"/>
      <point x="90" y="100"/>
      <point x="90" y="265" type="curve" smooth="yes"/>
      <point x="90" y="401"/>
      <point x="183" y="481"/>
      <point x="293" y="481" type="curve" smooth="yes"/>
      <point x="538" y="481"/>
      <point x="812" y="257"/>
      <point x="1293" y="193" type="curve"/>
      <point x="1329" y="-20" type="line"/>
      <point x="691" y="123"/>
      <point x="377" y="309"/>
      <point x="308" y="309" type="curve" smooth="yes"/>
      <point x="283" y="309"/>
      <point x="276" y="293"/>
      <point x="276" y="276" type="curve" smooth="yes"/>
      <point x="276" y="231"/>
      <point x="376" y="170"/>
      <point x="551" y="170" type="curve" smooth="yes"/>
      <point x="683" y="170"/>
      <point x="874" y="249"/>
      <point x="874" y="469" type="curve" smooth="yes"/>
      <point x="874" y="654"/>
      <point x="708" y="756"/>
      <point x="533" y="756" type="curve" smooth="yes"/>
      <point x="480" y="756"/>
      <point x="426" y="749"/>
    </contour>
    <contour>
      <point x="1329" y="-20" type="line"/>
      <point x="1170" y="41"/>
      <point x="1217" y="103"/>
      <point x="1163" y="151" type="curve"/>
      <point x="1173" y="343"/>
      <point x="1181" y="1368"/>
      <point x="1155" y="1480" type="curve"/>
      <point x="1350" y="1480" type="line"/>
      <point x="1350" y="0" type="line"/>
    </contour>
  </outline>
</glyph>
<glyph name="ka-kirat" format="2">
  <advance width="1799"/>
  <unicode hex="16D44"/>
  <outline>
    <contour>
      <point x="1625" y="170"/>
      <point x="1709" y="379"/>
      <point x="1709" y="565" type="curve" smooth="yes"/>
      <point x="1709" y="875"/>
      <point x="1485" y="1091"/>
      <point x="951" y="1091" type="curve" smooth="yes"/>
      <point x="426" y="1091"/>
      <point x="90" y="885"/>
      <point x="90" y="478" type="curve" smooth="yes"/>
      <point x="90" y="200"/>
      <point x="276" y="-3"/>
      <point x="592" y="-3" type="curve" smooth="yes"/>
      <point x="840" y="-3"/>
      <point x="1137" y="147"/>
      <point x="1137" y="570" type="curve" smooth="yes"/>
      <point x="1137" y="764"/>
      <point x="1132" y="1103"/>
      <point x="1132" y="1460" type="curve"/>
      <point x="135" y="1460" type="line"/>
      <point x="135" y="1255" type="line"/>
      <point x="215" y="1272"/>
      <point x="291" y="1275"/>
      <point x="380" y="1275" type="curve" smooth="yes"/>
      <point x="1000" y="1275" type="line"/>
      <point x="939" y="1366" type="line"/>
      <point x="946" y="1115"/>
      <point x="946" y="691"/>
      <point x="946" y="563" type="curve" smooth="yes"/>
      <point x="946" y="335"/>
      <point x="822" y="183"/>
      <point x="597" y="183" type="curve" smooth="yes"/>
      <point x="411" y="183"/>
      <point x="284" y="292"/>
      <point x="284" y="491" type="curve" smooth="yes"/>
      <point x="284" y="790"/>
      <point x="541" y="906"/>
      <point x="952" y="906" type="curve" smooth="yes"/>
      <point x="1381" y="906"/>
      <point x="1514" y="766"/>
      <point x="1514" y="549" type="curve" smooth="yes"/>
      <point x="1514" y="402"/>
      <point x="1446" y="263"/>
      <point x="1139" y="131" type="curve"/>
      <point x="1252" y="-23" type="line"/>
    </contour>
  </outline>
</glyph>
<glyph name="kha-kirat" format="2">
  <advance width="1957"/>
  <unicode hex="16D45"/>
  <outline>
    <contour>
      <point x="324" y="419"/>
      <point x="252" y="343"/>
      <point x="252" y="251" type="curve" smooth="yes"/>
      <point x="252" y="195"/>
      <point x="305" y="155"/>
      <point x="362" y="155" type="curve" smooth="yes"/>
      <point x="430" y="155"/>
      <point x="506" y="211"/>
      <point x="520" y="363" type="curve" smooth="yes"/>
      <point x="530" y="469"/>
      <point x="532" y="646"/>
      <point x="532" y="873" type="curve" smooth="yes"/>
      <point x="532" y="988"/>
      <point x="518" y="1339"/>
      <point x="495" y="1460" type="curve"/>
      <point x="672" y="1460" type="line"/>
      <point x="682" y="1307"/>
      <point x="687" y="1090"/>
      <point x="687" y="874" type="curve" smooth="yes"/>
      <point x="687" y="653"/>
      <point x="685" y="442"/>
      <point x="666" y="295" type="curve" smooth="yes"/>
      <point x="641" y="103"/>
      <point x="517" y="-10"/>
      <point x="350" y="-10" type="curve" smooth="yes"/>
      <point x="183" y="-10"/>
      <point x="87" y="116"/>
      <point x="87" y="252" type="curve" smooth="yes"/>
      <point x="87" y="411"/>
      <point x="218" y="584"/>
      <point x="522" y="584" type="curve" smooth="yes"/>
      <point x="768" y="584"/>
      <point x="968" y="489"/>
      <point x="1203" y="489" type="curve" smooth="yes"/>
      <point x="1279" y="489"/>
      <point x="1320" y="541"/>
      <point x="1320" y="591" type="curve" smooth="yes"/>
      <point x="1320" y="656"/>
      <point x="1279" y="690"/>
      <point x="1230" y="690" type="curve" smooth="yes"/>
      <point x="1114" y="690"/>
      <point x="1044" y="572"/>
      <point x="1044" y="450" type="curve" smooth="yes"/>
      <point x="1044" y="261"/>
      <point x="1173" y="157"/>
      <point x="1315" y="157" type="curve" smooth="yes"/>
      <point x="1553" y="157"/>
      <point x="1702" y="387"/>
      <point x="1702" y="660" type="curve" smooth="yes"/>
      <point x="1702" y="939"/>
      <point x="1570" y="1232"/>
      <point x="1375" y="1386" type="curve"/>
      <point x="1497" y="1499" type="line"/>
      <point x="1713" y="1308"/>
      <point x="1867" y="982"/>
      <point x="1867" y="681" type="curve" smooth="yes"/>
      <point x="1867" y="206"/>
      <point x="1577" y="-8"/>
      <point x="1312" y="-8" type="curve" smooth="yes"/>
      <point x="1088" y="-8"/>
      <point x="881" y="145"/>
      <point x="881" y="423" type="curve" smooth="yes"/>
      <point x="881" y="639"/>
      <point x="1016" y="855"/>
      <point x="1225" y="855" type="curve" smooth="yes"/>
      <point x="1398" y="855"/>
      <point x="1485" y="730"/>
      <point x="1485" y="602" type="curve" smooth="yes"/>
      <point x="1485" y="464"/>
      <point x="1385" y="324"/>
      <point x="1183" y="324" type="curve" smooth="yes"/>
      <point x="902" y="324"/>
      <point x="739" y="419"/>
      <point x="512" y="419" type="curve" smooth="yes"/>
    </contour>
  </outline>
</glyph>
<glyph name="nga-kirat" format="2">
  <advance width="1195"/>
  <unicode hex="16D45"/>
  <outline>
    <contour>
      <point x="398" y="735" type="curve"/>
      <point x="418" y="930" type="line"/>
      <point x="432" y="929"/>
      <point x="445" y="929"/>
      <point x="457" y="929" type="curve" smooth="yes"/>
      <point x="685" y="929"/>
      <point x="738" y="1044"/>
      <point x="738" y="1142" type="curve" smooth="yes"/>
      <point x="738" y="1228"/>
      <point x="664" y="1307"/>
      <point x="552" y="1307" type="curve" smooth="yes"/>
      <point x="448" y="1307"/>
      <point x="353" y="1239"/>
      <point x="333" y="1076" type="curve"/>
      <point x="145" y="1076" type="line"/>
      <point x="165" y="1266"/>
      <point x="282" y="1492"/>
      <point x="563" y="1492" type="curve" smooth="yes"/>
      <point x="802" y="1492"/>
      <point x="929" y="1326"/>
      <point x="929" y="1153" type="curve" smooth="yes"/>
      <point x="929" y="987"/>
      <point x="812" y="814"/>
      <point x="609" y="777" type="curve"/>
      <point x="709" y="909" type="line"/>
      <point x="897" y="880"/>
      <point x="1085" y="716"/>
      <point x="1085" y="477" type="curve" smooth="yes"/>
      <point x="1085" y="165"/>
      <point x="825" y="-5"/>
      <point x="575" y="-5" type="curve" smooth="yes"/>
      <point x="303" y="-5"/>
      <point x="110" y="134"/>
      <point x="110" y="339" type="curve" smooth="yes"/>
      <point x="110" y="475"/>
      <point x="203" y="599"/>
      <point x="382" y="599" type="curve" smooth="yes"/>
      <point x="545" y="599"/>
      <point x="642" y="486"/>
      <point x="642" y="366" type="curve" smooth="yes"/>
      <point x="642" y="273"/>
      <point x="585" y="177"/>
      <point x="456" y="123" type="curve"/>
      <point x="353" y="220" type="line"/>
      <point x="416" y="252"/>
      <point x="451" y="300"/>
      <point x="451" y="348" type="curve" smooth="yes"/>
      <point x="451" y="396"/>
      <point x="414" y="424"/>
      <point x="375" y="424" type="curve" smooth="yes"/>
      <point x="320" y="424"/>
      <point x="294" y="373"/>
      <point x="294" y="336" type="curve" smooth="yes"/>
      <point x="294" y="234"/>
      <point x="441" y="180"/>
      <point x="576" y="180" type="curve" smooth="yes"/>
      <point x="708" y="180"/>
      <point x="899" y="249"/>
      <point x="899" y="469" type="curve" smooth="yes"/>
      <point x="899" y="654"/>
      <point x="733" y="756"/>
      <point x="558" y="756" type="curve" smooth="yes"/>
      <point x="505" y="756"/>
      <point x="451" y="749"/>
    </contour>
  </outline>
</glyph>
<glyph name="ca-kirat" format="2">
  <advance width="1685"/>
  <unicode hex="16D46"/>
  <outline>
    <contour>
      <point x="1360" y="0" type="curve"/>
      <point x="1565" y="0" type="line"/>
      <point x="1565" y="1460" type="line"/>
      <point x="1360" y="1460" type="line"/>
      <point x="1366" y="1428"/>
      <point x="1368" y="1359"/>
      <point x="1368" y="1281" type="curve" smooth="yes"/>
      <point x="1368" y="1164"/>
      <point x="1364" y="1028"/>
      <point x="1365" y="975" type="curve" smooth="yes"/>
      <point x="1375" y="435" type="line" smooth="yes"/>
      <point x="1376" y="388"/>
      <point x="1376" y="343"/>
      <point x="1376" y="301" type="curve" smooth="yes"/>
      <point x="1376" y="167"/>
      <point x="1371" y="61"/>
    </contour>
    <contour>
      <point x="1291" y="866" type="curve"/>
      <point x="1347" y="1043" type="line"/>
      <point x="1158" y="1037"/>
      <point x="1012" y="1034"/>
      <point x="818" y="1034" type="curve" smooth="yes"/>
      <point x="669" y="1034"/>
      <point x="532" y="1035"/>
      <point x="432" y="1038" type="curve" smooth="yes"/>
      <point x="304" y="1041"/>
      <point x="255" y="1104"/>
      <point x="255" y="1160" type="curve" smooth="yes"/>
      <point x="255" y="1226"/>
      <point x="299" y="1259"/>
      <point x="344" y="1259" type="curve" smooth="yes"/>
      <point x="393" y="1259"/>
      <point x="443" y="1222"/>
      <point x="443" y="1146" type="curve" smooth="yes"/>
      <point x="443" y="914"/>
      <point x="70" y="793"/>
      <point x="70" y="429" type="curve" smooth="yes"/>
      <point x="70" y="220"/>
      <point x="244" y="2"/>
      <point x="577" y="2" type="curve" smooth="yes"/>
      <point x="1065" y="2"/>
      <point x="1411" y="483"/>
      <point x="1435" y="892" type="curve"/>
      <point x="1367" y="1374" type="line"/>
      <point x="1372" y="878"/>
      <point x="1064" y="187"/>
      <point x="596" y="187" type="curve" smooth="yes"/>
      <point x="338" y="187"/>
      <point x="259" y="323"/>
      <point x="259" y="456" type="curve" smooth="yes"/>
      <point x="259" y="703"/>
      <point x="623" y="880"/>
      <point x="623" y="1162" type="curve" smooth="yes"/>
      <point x="623" y="1324"/>
      <point x="500" y="1431"/>
      <point x="351" y="1431" type="curve" smooth="yes"/>
      <point x="168" y="1431"/>
      <point x="68" y="1296"/>
      <point x="68" y="1158" type="curve" smooth="yes"/>
      <point x="68" y="1015"/>
      <point x="165" y="875"/>
      <point x="395" y="867" type="curve" smooth="yes"/>
      <point x="488" y="864"/>
      <point x="620" y="855"/>
      <point x="755" y="855" type="curve" smooth="yes"/>
      <point x="972" y="855"/>
      <point x="1089" y="859"/>
    </contour>
  </outline>
</glyph>
<glyph name="ga-kirat" format="2">
  <advance width="1738"/>
  <unicode hex="16D46"/>
  <outline>
    <contour>
      <point x="167" y="1299" type="line"/>
      <point x="278" y="1413"/>
      <point x="409" y="1482"/>
      <point x="599" y="1482" type="curve" smooth="yes"/>
      <point x="880" y="1482"/>
      <point x="1146" y="1195"/>
      <point x="1146" y="742" type="curve" smooth="yes"/>
      <point x="1146" y="253"/>
      <point x="845" y="-8"/>
      <point x="589" y="-8" type="curve" smooth="yes"/>
      <point x="334" y="-8"/>
      <point x="172" y="173"/>
      <point x="102" y="392" type="curve"/>
      <point x="275" y="445" type="line"/>
      <point x="360" y="232"/>
      <point x="470" y="177"/>
      <point x="589" y="177" type="curve" smooth="yes"/>
      <point x="758" y="177"/>
      <point x="959" y="380"/>
      <point x="959" y="741" type="curve" smooth="yes"/>
      <point x="959" y="1064"/>
      <point x="794" y="1298"/>
      <point x="593" y="1298" type="curve" smooth="yes"/>
      <point x="477" y="1298"/>
      <point x="398" y="1263"/>
      <point x="283" y="1156" type="curve"/>
    </contour>
    <contour>
      <point x="1630" y="391"/>
      <point x="1622" y="253"/>
      <point x="1622" y="145" type="curve" smooth="yes"/>
      <point x="1622" y="78"/>
      <point x="1625" y="30"/>
      <point x="1635" y="0" type="curve"/>
      <point x="1445" y="0" type="line"/>
      <point x="1440" y="18"/>
      <point x="1439" y="52"/>
      <point x="1439" y="100" type="curve" smooth="yes"/>
      <point x="1439" y="202"/>
      <point x="1446" y="345"/>
      <point x="1446" y="438" type="curve" smooth="yes"/>
      <point x="1446" y="601"/>
      <point x="1377" y="667"/>
      <point x="1299" y="667" type="curve" smooth="yes"/>
      <point x="1234" y="667"/>
      <point x="1164" y="622"/>
      <point x="1123" y="513" type="curve"/>
      <point x="1033" y="688" type="line"/>
      <point x="1080" y="792"/>
      <point x="1202" y="850"/>
      <point x="1317" y="850" type="curve" smooth="yes"/>
      <point x="1476" y="850"/>
      <point x="1630" y="738"/>
      <point x="1630" y="500" type="curve" smooth="yes"/>
    </contour>
  </outline>
</glyph>
<glyph name="gha-kirat" format="2">
  <advance width="1540"/>
  <unicode hex="16D47"/>
  <outline>
    <contour>
      <point x="523" y="895" type="curve"/>
      <point x="445" y="767" type="line"/>
      <point x="329" y="809"/>
      <point x="199" y="912"/>
      <point x="199" y="1104" type="curve" smooth="yes"/>
      <point x="199" y="1366"/>
      <point x="381" y="1492"/>
      <point x="543" y="1492" type="curve" smooth="yes"/>
      <point x="671" y="1492"/>
      <point x="787" y="1412"/>
      <point x="787" y="1255" type="curve" smooth="yes"/>
      <point x="787" y="1112"/>
      <point x="660" y="958"/>
      <point x="323" y="958" type="curve" smooth="yes"/>
      <point x="220" y="958"/>
      <point x="108" y="968"/>
      <point x="0" y="979" type="curve"/>
      <point x="2" y="1164" type="line"/>
      <point x="36" y="1163"/>
      <point x="196" y="1138"/>
      <point x="337" y="1138" type="curve" smooth="yes"/>
      <point x="509" y="1138"/>
      <point x="599" y="1201"/>
      <point x="599" y="1252" type="curve" smooth="yes"/>
      <point x="599" y="1296"/>
      <point x="571" y="1316"/>
      <point x="536" y="1316" type="curve" smooth="yes"/>
      <point x="473" y="1316"/>
      <point x="385" y="1250"/>
      <point x="385" y="1128" type="curve" smooth="yes"/>
      <point x="385" y="948"/>
      <point x="556" y="901"/>
      <point x="700" y="932" type="curve"/>
      <point x="722" y="754" type="line"/>
      <point x="659" y="754"/>
      <point x="664" y="754"/>
      <point x="611" y="754" type="curve" smooth="yes"/>
      <point x="459" y="754"/>
      <point x="361" y="617"/>
      <point x="361" y="477" type="curve" smooth="yes"/>
      <point x="361" y="329"/>
      <point x="470" y="177"/>
      <point x="738" y="177" type="curve" smooth="yes"/>
      <point x="1095" y="177"/>
      <point x="1270" y="498"/>
      <point x="1270" y="865" type="curve" smooth="yes"/>
      <point x="1270" y="1054"/>
      <point x="1224" y="1255"/>
      <point x="1132" y="1431" type="curve"/>
      <point x="1312" y="1484" type="line"/>
      <point x="1405" y="1272"/>
      <point x="1450" y="1053"/>
      <point x="1450" y="849" type="curve" smooth="yes"/>
      <point x="1450" y="378"/>
      <point x="1205" y="-7"/>
      <point x="730" y="-7" type="curve" smooth="yes"/>
      <point x="344" y="-7"/>
      <point x="175" y="237"/>
      <point x="175" y="471" type="curve" smooth="yes"/>
      <point x="175" y="674"/>
      <point x="301" y="869"/>
    </contour>
  </outline>
</glyph>
<glyph name="cha-kirat" format="2">
  <advance width="1843"/>
  <unicode hex="16D4A"/>
  <outline>
    <contour>
      <point x="839" y="801" type="line"/>
      <point x="690" y="848"/>
      <point x="618" y="996"/>
      <point x="618" y="1143" type="curve" smooth="yes"/>
      <point x="618" y="1315"/>
      <point x="717" y="1485"/>
      <point x="905" y="1485" type="curve" smooth="yes"/>
      <point x="1065" y="1485"/>
      <point x="1147" y="1377"/>
      <point x="1147" y="1265" type="curve" smooth="yes"/>
      <point x="1147" y="1149"/>
      <point x="1056" y="1029"/>
      <point x="867" y="1029" type="curve" smooth="yes"/>
      <point x="734" y="1029"/>
      <point x="485" y="1076"/>
      <point x="337" y="1076" type="curve" smooth="yes"/>
      <point x="258" y="1076"/>
      <point x="228" y="1039"/>
      <point x="228" y="1003" type="curve" smooth="yes"/>
      <point x="228" y="970"/>
      <point x="254" y="938"/>
      <point x="290" y="938" type="curve" smooth="yes"/>
      <point x="369" y="938"/>
      <point x="408" y="1028"/>
      <point x="408" y="1123" type="curve" smooth="yes"/>
      <point x="408" y="1228"/>
      <point x="359" y="1338"/>
      <point x="200" y="1338" type="curve" smooth="yes"/>
      <point x="168" y="1338"/>
      <point x="122" y="1333"/>
      <point x="81" y="1323" type="curve"/>
      <point x="161" y="1487" type="line"/>
      <point x="179" y="1488"/>
      <point x="197" y="1489"/>
      <point x="214" y="1489" type="curve" smooth="yes"/>
      <point x="469" y="1489"/>
      <point x="584" y="1319"/>
      <point x="584" y="1142" type="curve" smooth="yes"/>
      <point x="584" y="953"/>
      <point x="467" y="769"/>
      <point x="282" y="769" type="curve" smooth="yes"/>
      <point x="133" y="769"/>
      <point x="50" y="879"/>
      <point x="50" y="993" type="curve" smooth="yes"/>
      <point x="50" y="1114"/>
      <point x="144" y="1238"/>
      <point x="351" y="1238" type="curve" smooth="yes"/>
      <point x="551" y="1238"/>
      <point x="704" y="1195"/>
      <point x="884" y="1195" type="curve" smooth="yes"/>
      <point x="946" y="1195"/>
      <point x="968" y="1229"/>
      <point x="968" y="1262" type="curve" smooth="yes"/>
      <point x="968" y="1292"/>
      <point x="942" y="1314"/>
      <point x="911" y="1314" type="curve" smooth="yes"/>
      <point x="865" y="1314"/>
      <point x="808" y="1267"/>
      <point x="808" y="1131" type="curve" smooth="yes"/>
      <point x="808" y="1040"/>
      <point x="867" y="932"/>
      <point x="1043" y="932" type="curve"/>
      <point x="1065" y="754" type="line"/>
      <point x="1002" y="754"/>
      <point x="1007" y="754"/>
      <point x="954" y="754" type="curve" smooth="yes"/>
      <point x="802" y="754"/>
      <point x="704" y="617"/>
      <point x="704" y="477" type="curve" smooth="yes"/>
      <point x="704" y="329"/>
      <point x="813" y="177"/>
      <point x="1081" y="177" type="curve" smooth="yes"/>
      <point x="1438" y="177"/>
      <point x="1613" y="498"/>
      <point x="1613" y="865" type="curve" smooth="yes"/>
      <point x="1613" y="1054"/>
      <point x="1567" y="1255"/>
      <point x="1475" y="1431" type="curve"/>
      <point x="1655" y="1484" type="line"/>
      <point x="1748" y="1272"/>
      <point x="1793" y="1053"/>
      <point x="1793" y="849" type="curve" smooth="yes"/>
      <point x="1793" y="378"/>
      <point x="1548" y="-7"/>
      <point x="1073" y="-7" type="curve" smooth="yes"/>
      <point x="687" y="-7"/>
      <point x="518" y="237"/>
      <point x="518" y="471" type="curve" smooth="yes"/>
      <point x="518" y="674"/>
      <point x="644" y="869"/>
      <point x="866" y="895" type="curve"/>
    </contour>
  </outline>
</glyph>
<glyph name="ja-kirat" format="2">
  <advance width="1751"/>
  <unicode hex="16D4B"/>
  <outline>
    <contour>
      <point x="395" y="-16" type="curve" smooth="yes"/>
      <point x="300" y="-16"/>
      <point x="198" y="-9"/>
      <point x="90" y="5" type="curve"/>
      <point x="169" y="165" type="line"/>
      <point x="252" y="155"/>
      <point x="348" y="150"/>
      <point x="451" y="150" type="curve" smooth="yes"/>
      <point x="849" y="150"/>
      <point x="1041" y="352"/>
      <point x="1041" y="535" type="curve" smooth="yes"/>
      <point x="1041" y="688"/>
      <point x="908" y="828"/>
      <point x="653" y="828" type="curve" smooth="yes"/>
      <point x="604" y="828"/>
      <point x="541" y="822"/>
      <point x="504" y="813" type="curve"/>
      <point x="456" y="950" type="line"/>
      <point x="591" y="1050"/>
      <point x="812" y="1276"/>
      <point x="874" y="1342" type="curve"/>
      <point x="979" y="1296" type="line"/>
      <point x="928" y="1295"/>
      <point x="838" y="1295"/>
      <point x="735" y="1295" type="curve" smooth="yes"/>
      <point x="530" y="1295"/>
      <point x="274" y="1296"/>
      <point x="175" y="1296" type="curve"/>
      <point x="121" y="1460" type="line"/>
      <point x="1109" y="1460" type="line"/>
      <point x="1145" y="1406" type="line"/>
      <point x="934" y="1175"/>
      <point x="787" y="1029"/>
      <point x="631" y="890" type="curve"/>
      <point x="675" y="989" type="line"/>
      <point x="962" y="989"/>
      <point x="1205" y="841"/>
      <point x="1205" y="557" type="curve" smooth="yes"/>
      <point x="1205" y="181"/>
      <point x="898" y="-16"/>
    </contour>
    <contour>
      <point x="1645" y="0" type="curve"/>
      <point x="1483" y="0" type="line"/>
      <point x="1478" y="18"/>
      <point x="1477" y="52"/>
      <point x="1477" y="100" type="curve" smooth="yes"/>
      <point x="1477" y="202"/>
      <point x="1484" y="363"/>
      <point x="1484" y="456" type="curve" smooth="yes"/>
      <point x="1484" y="619"/>
      <point x="1415" y="685"/>
      <point x="1309" y="685" type="curve" smooth="yes"/>
      <point x="1244" y="685"/>
      <point x="1177" y="641"/>
      <point x="1136" y="532" type="curve"/>
      <point x="1043" y="688" type="line"/>
      <point x="1089" y="791"/>
      <point x="1206" y="850"/>
      <point x="1323" y="850" type="curve" smooth="yes"/>
      <point x="1480" y="850"/>
      <point x="1640" y="745"/>
      <point x="1640" y="500" type="curve" smooth="yes"/>
      <point x="1640" y="391"/>
      <point x="1632" y="253"/>
      <point x="1632" y="145" type="curve" smooth="yes"/>
      <point x="1632" y="78"/>
      <point x="1635" y="30"/>
    </contour>
  </outline>
</glyph>
<glyph name="jha-kirat" format="2">
  <advance width="1662"/>
  <unicode hex="16D4C"/>
  <outline>
    <contour>
      <point x="807" y="829" type="curve" smooth="yes"/>
      <point x="366" y="754"/>
      <point x="91" y="614"/>
      <point x="91" y="274" type="curve" smooth="yes"/>
      <point x="91" y="107"/>
      <point x="202" y="1"/>
      <point x="333" y="1" type="curve" smooth="yes"/>
      <point x="655" y="1"/>
      <point x="752" y="466"/>
      <point x="752" y="857" type="curve" smooth="yes"/>
      <point x="752" y="1172"/>
      <point x="693" y="1485"/>
      <point x="400" y="1485" type="curve" smooth="yes"/>
      <point x="299" y="1485"/>
      <point x="125" y="1425"/>
      <point x="50" y="1073" type="curve"/>
      <point x="218" y="999" type="line"/>
      <point x="262" y="1207"/>
      <point x="320" y="1299"/>
      <point x="410" y="1299" type="curve" smooth="yes"/>
      <point x="493" y="1299"/>
      <point x="565" y="1200"/>
      <point x="565" y="872" type="curve" smooth="yes"/>
      <point x="565" y="727"/>
      <point x="552" y="597"/>
      <point x="534" y="489" type="curve" smooth="yes"/>
      <point x="497" y="266"/>
      <point x="413" y="179"/>
      <point x="350" y="179" type="curve" smooth="yes"/>
      <point x="304" y="179"/>
      <point x="271" y="220"/>
      <point x="271" y="286" type="curve" smooth="yes"/>
      <point x="271" y="514"/>
      <point x="503" y="587"/>
      <point x="842" y="645" type="curve" smooth="yes"/>
      <point x="1289" y="721"/>
      <point x="1561" y="871"/>
      <point x="1561" y="1211" type="curve" smooth="yes"/>
      <point x="1561" y="1378"/>
      <point x="1450" y="1484"/>
      <point x="1319" y="1484" type="curve" smooth="yes"/>
      <point x="997" y="1484"/>
      <point x="900" y="1019"/>
      <point x="900" y="628" type="curve" smooth="yes"/>
      <point x="900" y="313"/>
      <point x="959" y="0"/>
      <point x="1252" y="0" type="curve" smooth="yes"/>
      <point x="1363" y="0"/>
      <point x="1537" y="60"/>
      <point x="1612" y="412" type="curve"/>
      <point x="1444" y="486" type="line"/>
      <point x="1400" y="278"/>
      <point x="1342" y="186"/>
      <point x="1242" y="186" type="curve" smooth="yes"/>
      <point x="1159" y="186"/>
      <point x="1087" y="285"/>
      <point x="1087" y="613" type="curve" smooth="yes"/>
      <point x="1087" y="758"/>
      <point x="1100" y="888"/>
      <point x="1118" y="996" type="curve" smooth="yes"/>
      <point x="1155" y="1219"/>
      <point x="1239" y="1306"/>
      <point x="1302" y="1306" type="curve" smooth="yes"/>
      <point x="1348" y="1306"/>
      <point x="1381" y="1265"/>
      <point x="1381" y="1199" type="curve" smooth="yes"/>
      <point x="1381" y="971"/>
      <point x="1149" y="887"/>
    </contour>
  </outline>
</glyph>
<glyph name="nya-kirat" format="2">
  <advance width="1414"/>
  <unicode hex="16D4D"/>
  <outline>
    <contour>
      <point x="676" y="1034"/>
      <point x="512" y="774"/>
      <point x="512" y="502" type="curve" smooth="yes"/>
      <point x="512" y="226"/>
      <point x="697" y="-12"/>
      <point x="983" y="-12" type="curve" smooth="yes"/>
      <point x="1217" y="-12"/>
      <point x="1324" y="128"/>
      <point x="1324" y="267" type="curve" smooth="yes"/>
      <point x="1324" y="401"/>
      <point x="1223" y="534"/>
      <point x="1039" y="534" type="curve" smooth="yes"/>
      <point x="739" y="534"/>
      <point x="471" y="175"/>
      <point x="252" y="175" type="curve" smooth="yes"/>
      <point x="215" y="175"/>
      <point x="177" y="180"/>
      <point x="139" y="193" type="curve"/>
      <point x="200" y="2" type="line"/>
      <point x="228" y="-3"/>
      <point x="256" y="-5"/>
      <point x="284" y="-5" type="curve" smooth="yes"/>
      <point x="545" y="-5"/>
      <point x="834" y="349"/>
      <point x="1039" y="349" type="curve" smooth="yes"/>
      <point x="1101" y="349"/>
      <point x="1138" y="308"/>
      <point x="1138" y="266" type="curve" smooth="yes"/>
      <point x="1138" y="220"/>
      <point x="1094" y="172"/>
      <point x="987" y="172" type="curve" smooth="yes"/>
      <point x="757" y="172"/>
      <point x="699" y="382"/>
      <point x="699" y="531" type="curve" smooth="yes"/>
      <point x="699" y="796"/>
      <point x="967" y="1027"/>
      <point x="1280" y="1285" type="curve"/>
      <point x="1210" y="1460" type="line"/>
      <point x="90" y="1460" type="line"/>
      <point x="138" y="1275" type="line"/>
      <point x="1202" y="1275" type="line"/>
      <point x="1074" y="1342" type="line"/>
    </contour>
  </outline>
</glyph>
<glyph name="tta-kirat" format="2">
  <advance width="1200"/>
  <unicode hex="16D4E"/>
  <outline>
    <contour>
      <point x="940" y="1349" type="line"/>
      <point x="734" y="1061"/>
      <point x="403" y="657"/>
      <point x="403" y="390" type="curve" smooth="yes"/>
      <point x="403" y="231"/>
      <point x="507" y="152"/>
      <point x="611" y="152" type="curve" smooth="yes"/>
      <point x="714" y="152"/>
      <point x="817" y="230"/>
      <point x="817" y="386" type="curve" smooth="yes"/>
      <point x="817" y="639"/>
      <point x="374" y="1264"/>
      <point x="310" y="1348" type="curve"/>
      <point x="381" y="1303" type="line"/>
      <point x="291" y="1303"/>
      <point x="205" y="1303"/>
      <point x="90" y="1275" type="curve"/>
      <point x="90" y="1460" type="line"/>
      <point x="439" y="1460" type="line"/>
      <point x="660" y="1095"/>
      <point x="982" y="693"/>
      <point x="982" y="373" type="curve" smooth="yes"/>
      <point x="982" y="121"/>
      <point x="791" y="-13"/>
      <point x="602" y="-13" type="curve" smooth="yes"/>
      <point x="419" y="-13"/>
      <point x="238" y="118"/>
      <point x="238" y="378" type="curve" smooth="yes"/>
      <point x="238" y="693"/>
      <point x="597" y="1133"/>
      <point x="801" y="1460" type="curve"/>
      <point x="1110" y="1460" type="line"/>
      <point x="1110" y="1275" type="line"/>
      <point x="995" y="1303"/>
      <point x="878" y="1303"/>
      <point x="788" y="1303" type="curve"/>
    </contour>
  </outline>
</glyph>
<glyph name="ttha-kirat" format="2">
  <advance width="1313"/>
  <unicode hex="16D4F"/>
  <outline>
    <contour>
      <point x="487" y="1051" type="curve"/>
      <point x="662" y="1051"/>
      <point x="749" y="921"/>
      <point x="749" y="791" type="curve" smooth="yes"/>
      <point x="749" y="660"/>
      <point x="660" y="528"/>
      <point x="482" y="528" type="curve" smooth="yes"/>
      <point x="358" y="528"/>
      <point x="232" y="613"/>
      <point x="200" y="760" type="curve"/>
      <point x="322" y="861" type="line"/>
      <point x="345" y="746"/>
      <point x="420" y="693"/>
      <point x="481" y="693" type="curve" smooth="yes"/>
      <point x="551" y="693"/>
      <point x="585" y="739"/>
      <point x="585" y="786" type="curve" smooth="yes"/>
      <point x="585" y="836"/>
      <point x="548" y="886"/>
      <point x="480" y="886" type="curve" smooth="yes"/>
      <point x="384" y="886"/>
      <point x="256" y="781"/>
      <point x="256" y="534" type="curve" smooth="yes"/>
      <point x="256" y="344"/>
      <point x="369" y="167"/>
      <point x="624" y="167" type="curve" smooth="yes"/>
      <point x="843" y="167"/>
      <point x="1035" y="310"/>
      <point x="1044" y="590" type="curve" smooth="yes"/>
      <point x="1047" y="680"/>
      <point x="1048" y="744"/>
      <point x="1048" y="813" type="curve" smooth="yes"/>
      <point x="1048" y="1086"/>
      <point x="1035" y="1437"/>
      <point x="1031" y="1460" type="curve"/>
      <point x="1196" y="1460" type="line"/>
      <point x="1202" y="1031"/>
      <point x="1203" y="907"/>
      <point x="1203" y="863" type="curve" smooth="yes"/>
      <point x="1203" y="827"/>
      <point x="1203" y="733"/>
      <point x="1203" y="626" type="curve" smooth="yes"/>
      <point x="1203" y="348"/>
      <point x="1044" y="2"/>
      <point x="618" y="2" type="curve" smooth="yes"/>
      <point x="266" y="2"/>
      <point x="90" y="268"/>
      <point x="90" y="532" type="curve" smooth="yes"/>
      <point x="90" y="793"/>
      <point x="241" y="1051"/>
    </contour>
  </outline>
</glyph>
<glyph name="dda-kirat" format="2">
  <advance width="1355"/>
  <unicode hex="16D50"/>
  <outline>
    <contour>
      <point x="541" y="1275" type="curve" smooth="yes"/>
      <point x="696" y="1275"/>
      <point x="883" y="1275"/>
      <point x="988" y="1275" type="curve"/>
      <point x="872" y="1342" type="line"/>
      <point x="830" y="1265"/>
      <point x="619" y="1010"/>
      <point x="504" y="910" type="curve"/>
      <point x="599" y="807" type="line"/>
      <point x="634" y="817"/>
      <point x="682" y="822"/>
      <point x="750" y="822" type="curve" smooth="yes"/>
      <point x="886" y="822"/>
      <point x="1085" y="723"/>
      <point x="1085" y="521" type="curve" smooth="yes"/>
      <point x="1085" y="349"/>
      <point x="956" y="174"/>
      <point x="707" y="174" type="curve" smooth="yes"/>
      <point x="447" y="174"/>
      <point x="270" y="372"/>
      <point x="270" y="695" type="curve" smooth="yes"/>
      <point x="270" y="720"/>
      <point x="271" y="747"/>
      <point x="273" y="774" type="curve"/>
      <point x="91" y="747" type="line"/>
      <point x="90" y="732"/>
      <point x="90" y="717"/>
      <point x="90" y="702" type="curve" smooth="yes"/>
      <point x="90" y="245"/>
      <point x="370" y="-6"/>
      <point x="699" y="-6" type="curve" smooth="yes"/>
      <point x="1073" y="-6"/>
      <point x="1265" y="268"/>
      <point x="1265" y="529" type="curve" smooth="yes"/>
      <point x="1265" y="742"/>
      <point x="1092" y="997"/>
      <point x="727" y="998" type="curve"/>
      <point x="738" y="890" type="line"/>
      <point x="874" y="1029"/>
      <point x="961" y="1162"/>
      <point x="1172" y="1383" type="curve"/>
      <point x="1122" y="1460" type="line"/>
      <point x="296" y="1460" type="line"/>
      <point x="296" y="1255" type="line"/>
      <point x="376" y="1272"/>
      <point x="452" y="1275"/>
    </contour>
  </outline>
</glyph>
<glyph name="ddha-kirat" format="2">
  <advance width="1348"/>
  <unicode hex="16D51"/>
  <outline>
    <contour>
      <point x="1024" y="955" type="line"/>
      <point x="742" y="1026"/>
      <point x="601" y="1066"/>
      <point x="467" y="1057" type="curve" smooth="yes"/>
      <point x="452" y="1056"/>
      <point x="435" y="1055"/>
      <point x="419" y="1055" type="curve" smooth="yes"/>
      <point x="368" y="1054"/>
      <point x="344" y="1043"/>
      <point x="344" y="1028" type="curve" smooth="yes"/>
      <point x="344" y="1015"/>
      <point x="363" y="1003"/>
      <point x="399" y="1003" type="curve" smooth="yes"/>
      <point x="577" y="1003"/>
      <point x="895" y="1275"/>
      <point x="1023" y="1402" type="curve"/>
      <point x="1102" y="1275" type="line"/>
      <point x="918" y="1275"/>
      <point x="457" y="1275"/>
      <point x="138" y="1275" type="curve"/>
      <point x="90" y="1460" type="line"/>
      <point x="1258" y="1460" type="line"/>
      <point x="1250" y="1333" type="line"/>
      <point x="986" y="1158"/>
      <point x="609" y="822"/>
      <point x="403" y="816" type="curve" smooth="yes"/>
      <point x="242" y="812"/>
      <point x="159" y="912"/>
      <point x="159" y="1015" type="curve" smooth="yes"/>
      <point x="159" y="1124"/>
      <point x="253" y="1237"/>
      <point x="448" y="1242" type="curve" smooth="yes"/>
      <point x="647" y="1247"/>
      <point x="1017" y="1148"/>
      <point x="1161" y="1083" type="curve"/>
      <point x="1195" y="1028" type="line"/>
      <point x="1084" y="835" type="line"/>
      <point x="495" y="666"/>
      <point x="373" y="524"/>
      <point x="373" y="380" type="curve" smooth="yes"/>
      <point x="373" y="255"/>
      <point x="497" y="179"/>
      <point x="672" y="179" type="curve" smooth="yes"/>
      <point x="1098" y="179"/>
      <point x="1093" y="501"/>
      <point x="969" y="501" type="curve" smooth="yes"/>
      <point x="933" y="501"/>
      <point x="898" y="478"/>
      <point x="898" y="434" type="curve" smooth="yes"/>
      <point x="898" y="397"/>
      <point x="920" y="344"/>
      <point x="1041" y="340" type="curve"/>
      <point x="989" y="190" type="line"/>
      <point x="824" y="205"/>
      <point x="712" y="289"/>
      <point x="712" y="440" type="curve" smooth="yes"/>
      <point x="712" y="560"/>
      <point x="795" y="685"/>
      <point x="976" y="685" type="curve" smooth="yes"/>
      <point x="1130" y="685"/>
      <point x="1221" y="589"/>
      <point x="1221" y="424" type="curve" smooth="yes"/>
      <point x="1221" y="138"/>
      <point x="924" y="-6"/>
      <point x="674" y="-6" type="curve" smooth="yes"/>
      <point x="422" y="-6"/>
      <point x="191" y="115"/>
      <point x="191" y="376" type="curve" smooth="yes"/>
      <point x="191" y="637"/>
      <point x="363" y="808"/>
      <point x="1060" y="1017" type="curve"/>
    </contour>
  </outline>
</glyph>
<glyph name="ta-kirat" format="2">
  <advance width="1562"/>
  <unicode hex="16D52"/>
  <outline>
    <contour>
      <point x="323" y="866" type="curve" smooth="yes"/>
      <point x="624" y="866"/>
      <point x="1165" y="1291"/>
      <point x="1375" y="1287" type="curve"/>
      <point x="1272" y="1349" type="line"/>
      <point x="1285" y="876"/>
      <point x="1298" y="651"/>
      <point x="1298" y="304" type="curve" smooth="yes"/>
      <point x="1298" y="213"/>
      <point x="1297" y="114"/>
      <point x="1295" y="0" type="curve"/>
      <point x="1482" y="0" type="line"/>
      <point x="1450" y="1433" type="line"/>
      <point x="1364" y="1488" type="line"/>
      <point x="842" y="1299"/>
      <point x="534" y="1050"/>
      <point x="328" y="1050" type="curve" smooth="yes"/>
      <point x="269" y="1050"/>
      <point x="240" y="1091"/>
      <point x="240" y="1132" type="curve" smooth="yes"/>
      <point x="240" y="1172"/>
      <point x="268" y="1212"/>
      <point x="324" y="1212" type="curve" smooth="yes"/>
      <point x="514" y="1212"/>
      <point x="484" y="463"/>
      <point x="689" y="0" type="curve"/>
      <point x="876" y="1" type="line"/>
      <point x="620" y="664"/>
      <point x="737" y="1395"/>
      <point x="336" y="1395" type="curve" smooth="yes"/>
      <point x="146" y="1395"/>
      <point x="50" y="1259"/>
      <point x="50" y="1125" type="curve" smooth="yes"/>
      <point x="50" y="994"/>
      <point x="140" y="866"/>
    </contour>
  </outline>
</glyph>
<glyph name="tha-kirat" format="2">
  <advance width="1375"/>
  <unicode hex="16D53"/>
  <outline>
    <contour>
      <point x="575" y="912" type="line"/>
      <point x="380" y="907"/>
      <point x="296" y="1000"/>
      <point x="296" y="1105" type="curve" smooth="yes"/>
      <point x="296" y="1210"/>
      <point x="380" y="1317"/>
      <point x="517" y="1317" type="curve" smooth="yes"/>
      <point x="650" y="1317"/>
      <point x="701" y="1266"/>
      <point x="701" y="1220" type="curve" smooth="yes"/>
      <point x="701" y="1175"/>
      <point x="666" y="1153"/>
      <point x="632" y="1153" type="curve" smooth="yes"/>
      <point x="597" y="1153"/>
      <point x="572" y="1182"/>
      <point x="572" y="1214" type="curve" smooth="yes"/>
      <point x="572" y="1251"/>
      <point x="607" y="1292"/>
      <point x="704" y="1292" type="curve"/>
      <point x="664" y="1404" type="line"/>
      <point x="488" y="1404"/>
      <point x="397" y="1300"/>
      <point x="397" y="1187" type="curve" smooth="yes"/>
      <point x="397" y="1079"/>
      <point x="480" y="973"/>
      <point x="640" y="973" type="curve" smooth="yes"/>
      <point x="785" y="973"/>
      <point x="885" y="1093"/>
      <point x="885" y="1219" type="curve" smooth="yes"/>
      <point x="885" y="1358"/>
      <point x="760" y="1492"/>
      <point x="525" y="1492" type="curve" smooth="yes"/>
      <point x="258" y="1492"/>
      <point x="112" y="1293"/>
      <point x="112" y="1098" type="curve" smooth="yes"/>
      <point x="112" y="912"/>
      <point x="217" y="781"/>
      <point x="423" y="767" type="curve"/>
      <point x="398" y="875" type="line"/>
      <point x="176" y="849"/>
      <point x="50" y="654"/>
      <point x="50" y="471" type="curve" smooth="yes"/>
      <point x="50" y="237"/>
      <point x="219" y="-7"/>
      <point x="605" y="-7" type="curve" smooth="yes"/>
      <point x="1080" y="-7"/>
      <point x="1325" y="378"/>
      <point x="1325" y="849" type="curve" smooth="yes"/>
      <point x="1325" y="1053"/>
      <point x="1280" y="1272"/>
      <point x="1187" y="1484" type="curve"/>
      <point x="1007" y="1431" type="line"/>
      <point x="1099" y="1255"/>
      <point x="1145" y="1054"/>
      <point x="1145" y="865" type="curve" smooth="yes"/>
      <point x="1145" y="498"/>
      <point x="970" y="177"/>
      <point x="613" y="177" type="curve" smooth="yes"/>
      <point x="345" y="177"/>
      <point x="236" y="329"/>
      <point x="236" y="477" type="curve" smooth="yes"/>
      <point x="236" y="597"/>
      <point x="334" y="734"/>
      <point x="486" y="734" type="curve" smooth="yes"/>
      <point x="539" y="734"/>
      <point x="534" y="734"/>
      <point x="597" y="734" type="curve"/>
    </contour>
  </outline>
</glyph>
<glyph name="da-kirat" format="2">
  <advance width="1385"/>
  <unicode hex="16D54"/>
  <outline>
    <contour>
      <point x="797" y="765" type="line"/>
      <point x="744" y="779"/>
      <point x="690" y="786"/>
      <point x="637" y="786" type="curve" smooth="yes"/>
      <point x="403" y="786"/>
      <point x="265" y="618"/>
      <point x="265" y="457" type="curve" smooth="yes"/>
      <point x="265" y="306"/>
      <point x="385" y="160"/>
      <point x="656" y="160" type="curve" smooth="yes"/>
      <point x="873" y="160"/>
      <point x="1098" y="261"/>
      <point x="1098" y="428" type="curve" smooth="yes"/>
      <point x="1098" y="496"/>
      <point x="1053" y="531"/>
      <point x="1006" y="531" type="curve" smooth="yes"/>
      <point x="958" y="531"/>
      <point x="908" y="492"/>
      <point x="908" y="414" type="curve" smooth="yes"/>
      <point x="908" y="317"/>
      <point x="988" y="177"/>
      <point x="1171" y="60" type="curve"/>
      <point x="1048" y="-50" type="line"/>
      <point x="929" y="24"/>
      <point x="743" y="217"/>
      <point x="743" y="426" type="curve" smooth="yes"/>
      <point x="743" y="604"/>
      <point x="872" y="696"/>
      <point x="1011" y="696" type="curve" smooth="yes"/>
      <point x="1132" y="696"/>
      <point x="1263" y="611"/>
      <point x="1263" y="435" type="curve" smooth="yes"/>
      <point x="1263" y="260"/>
      <point x="1072" y="-5"/>
      <point x="660" y="-5" type="curve" smooth="yes"/>
      <point x="273" y="-5"/>
      <point x="99" y="224"/>
      <point x="99" y="455" type="curve" smooth="yes"/>
      <point x="99" y="666"/>
      <point x="245" y="879"/>
      <point x="506" y="919" type="curve"/>
      <point x="586" y="807" type="line"/>
      <point x="360" y="839"/>
      <point x="257" y="986"/>
      <point x="257" y="1136" type="curve" smooth="yes"/>
      <point x="257" y="1312"/>
      <point x="399" y="1492"/>
      <point x="652" y="1492" type="curve" smooth="yes"/>
      <point x="918" y="1492"/>
      <point x="1050" y="1295"/>
      <point x="1050" y="1076" type="curve"/>
      <point x="887" y="1076" type="line"/>
      <point x="884" y="1255"/>
      <point x="780" y="1327"/>
      <point x="650" y="1327" type="curve" smooth="yes"/>
      <point x="498" y="1327"/>
      <point x="422" y="1237"/>
      <point x="422" y="1144" type="curve" smooth="yes"/>
      <point x="422" y="1045"/>
      <point x="507" y="944"/>
      <point x="678" y="944" type="curve" smooth="yes"/>
      <point x="710" y="944"/>
      <point x="763" y="944"/>
      <point x="777" y="945" type="curve"/>
    </contour>
  </outline>
</glyph>
<glyph name="pa-kirat" format="2">
  <advance width="1310"/>
  <unicode hex="16D54"/>
  <outline>
    <contour>
      <point x="1087" y="725" type="curve"/>
      <point x="1055" y="953" type="line"/>
      <point x="998" y="819"/>
      <point x="747" y="611"/>
      <point x="510" y="611" type="curve" smooth="yes"/>
      <point x="373" y="611"/>
      <point x="290" y="688"/>
      <point x="290" y="915" type="curve"/>
      <point x="290" y="1450" type="line"/>
      <point x="85" y="1450" type="line"/>
      <point x="103" y="1330"/>
      <point x="105" y="1257"/>
      <point x="105" y="1130" type="curve" smooth="yes"/>
      <point x="105" y="1111"/>
      <point x="105" y="874"/>
      <point x="105" y="855" type="curve" smooth="yes"/>
      <point x="105" y="570"/>
      <point x="225" y="425"/>
      <point x="495" y="425" type="curve" smooth="yes"/>
      <point x="789" y="425"/>
      <point x="963" y="608"/>
    </contour>
    <contour>
      <point x="1010" y="604" type="line" smooth="yes"/>
      <point x="1010" y="329"/>
      <point x="906" y="189"/>
      <point x="621" y="185" type="curve" smooth="yes"/>
      <point x="420" y="182"/>
      <point x="267" y="262"/>
      <point x="158" y="367" type="curve"/>
      <point x="98" y="171" type="line"/>
      <point x="226" y="58"/>
      <point x="426" y="0"/>
      <point x="609" y="0" type="curve" smooth="yes"/>
      <point x="1193" y="0"/>
      <point x="1205" y="485"/>
      <point x="1204" y="610" type="curve" smooth="yes"/>
      <point x="1195" y="1450" type="line"/>
      <point x="990" y="1450" type="line"/>
      <point x="1008" y="1328"/>
      <point x="1010" y="1262"/>
      <point x="1010" y="1130" type="curve" smooth="yes"/>
    </contour>
  </outline>
</glyph>
<glyph name="dha-kirat" format="2">
  <advance width="1586"/>
  <unicode hex="16D55"/>
  <outline>
    <contour>
      <point x="776" y="1306" type="curve" smooth="yes"/>
      <point x="1481" y="1306"/>
      <point x="1509" y="949"/>
      <point x="1509" y="786" type="curve" smooth="yes"/>
      <point x="1509" y="637"/>
      <point x="1461" y="477"/>
      <point x="1323" y="318" type="curve"/>
      <point x="1161" y="407" type="line"/>
      <point x="1290" y="558"/>
      <point x="1324" y="674"/>
      <point x="1324" y="792" type="curve" smooth="yes"/>
      <point x="1324" y="1007"/>
      <point x="1181" y="1120"/>
      <point x="770" y="1120" type="curve" smooth="yes"/>
      <point x="317" y="1120"/>
      <point x="243" y="1071"/>
      <point x="243" y="979" type="curve" smooth="yes"/>
      <point x="243" y="898"/>
      <point x="329" y="857"/>
      <point x="423" y="857" type="curve" smooth="yes"/>
      <point x="478" y="857"/>
      <point x="543" y="871"/>
      <point x="610" y="899" type="curve"/>
      <point x="634" y="722" type="line"/>
      <point x="439" y="677"/>
      <point x="339" y="537"/>
      <point x="339" y="420" type="curve" smooth="yes"/>
      <point x="339" y="276"/>
      <point x="427" y="179"/>
      <point x="598" y="179" type="curve" smooth="yes"/>
      <point x="775" y="179"/>
      <point x="889" y="289"/>
      <point x="889" y="470" type="curve" smooth="yes"/>
      <point x="889" y="881"/>
      <point x="888" y="1291"/>
      <point x="869" y="1486" type="curve"/>
      <point x="1075" y="1486" type="line"/>
      <point x="1075" y="1129"/>
      <point x="1080" y="794"/>
      <point x="1080" y="501" type="curve" smooth="yes"/>
      <point x="1080" y="163"/>
      <point x="862" y="-5"/>
      <point x="597" y="-5" type="curve" smooth="yes"/>
      <point x="304" y="-5"/>
      <point x="154" y="189"/>
      <point x="154" y="406" type="curve" smooth="yes"/>
      <point x="154" y="550"/>
      <point x="215" y="707"/>
      <point x="415" y="797" type="curve"/>
      <point x="412" y="680" type="line"/>
      <point x="239" y="669"/>
      <point x="59" y="787"/>
      <point x="59" y="965" type="curve" smooth="yes"/>
      <point x="59" y="1288"/>
      <point x="383" y="1306"/>
    </contour>
  </outline>
</glyph>
<glyph name="ba-kirat" format="2">
  <advance width="1357"/>
  <unicode hex="16D56"/>
  <outline>
    <contour>
      <point x="1252" y="641" type="curve" smooth="yes"/>
      <point x="1252" y="804"/>
      <point x="1247" y="1103"/>
      <point x="1247" y="1460" type="curve"/>
      <point x="80" y="1460" type="line"/>
      <point x="80" y="1255" type="line"/>
      <point x="160" y="1272"/>
      <point x="236" y="1275"/>
      <point x="325" y="1275" type="curve" smooth="yes"/>
      <point x="1115" y="1275" type="line"/>
      <point x="1054" y="1366" type="line"/>
      <point x="1061" y="1115"/>
      <point x="1061" y="711"/>
      <point x="1061" y="593" type="curve" smooth="yes"/>
      <point x="1061" y="425"/>
      <point x="997" y="183"/>
      <point x="652" y="183" type="curve" smooth="yes"/>
      <point x="418" y="183"/>
      <point x="282" y="293"/>
      <point x="282" y="500" type="curve" smooth="yes"/>
      <point x="282" y="649"/>
      <point x="406" y="796"/>
      <point x="677" y="796" type="curve" smooth="yes"/>
      <point x="860" y="796"/>
      <point x="992" y="771"/>
      <point x="1126" y="721" type="curve"/>
      <point x="1178" y="883" type="line"/>
      <point x="992" y="975"/>
      <point x="781" y="981"/>
      <point x="676" y="981" type="curve" smooth="yes"/>
      <point x="277" y="981"/>
      <point x="80" y="733"/>
      <point x="80" y="486" type="curve" smooth="yes"/>
      <point x="80" y="211"/>
      <point x="274" y="-3"/>
      <point x="647" y="-3" type="curve" smooth="yes"/>
      <point x="985" y="-3"/>
      <point x="1252" y="187"/>
    </contour>
  </outline>
</glyph>
<glyph name="na-kirat" format="2">
  <advance width="1663"/>
  <unicode hex="16D56"/>
  <outline>
    <contour>
      <point x="1358" y="0" type="curve"/>
      <point x="1553" y="0" type="line"/>
      <point x="1532" y="717"/>
      <point x="1534" y="1203"/>
      <point x="1553" y="1460" type="curve"/>
      <point x="1358" y="1460" type="line"/>
      <point x="1375" y="1207"/>
      <point x="1379" y="937"/>
      <point x="1379" y="720" type="curve" smooth="yes"/>
      <point x="1379" y="491"/>
      <point x="1374" y="323"/>
      <point x="1374" y="301" type="curve" smooth="yes"/>
      <point x="1374" y="167"/>
      <point x="1369" y="61"/>
    </contour>
    <contour>
      <point x="1358" y="0" type="curve"/>
      <point x="1553" y="0" type="line"/>
      <point x="1553" y="1460" type="line"/>
      <point x="1358" y="1460" type="line"/>
      <point x="1411" y="1175"/>
      <point x="1429" y="1078"/>
      <point x="1429" y="1023" type="curve" smooth="yes"/>
      <point x="1429" y="926"/>
      <point x="1374" y="962"/>
      <point x="1374" y="301" type="curve" smooth="yes"/>
      <point x="1374" y="167"/>
      <point x="1369" y="61"/>
    </contour>
    <contour>
      <point x="326" y="1029" type="line"/>
      <point x="323" y="877"/>
      <point x="439" y="799"/>
      <point x="557" y="799" type="curve" smooth="yes"/>
      <point x="678" y="799"/>
      <point x="801" y="881"/>
      <point x="801" y="1049" type="curve" smooth="yes"/>
      <point x="801" y="1170"/>
      <point x="701" y="1289"/>
      <point x="559" y="1289" type="curve" smooth="yes"/>
      <point x="257" y="1289"/>
      <point x="90" y="1003"/>
      <point x="90" y="715" type="curve" smooth="yes"/>
      <point x="90" y="424"/>
      <point x="260" y="132"/>
      <point x="635" y="132" type="curve" smooth="yes"/>
      <point x="1052" y="132"/>
      <point x="1283" y="420"/>
      <point x="1451" y="892" type="curve"/>
      <point x="1362" y="1412" type="line"/>
      <point x="1351" y="901"/>
      <point x="1054" y="316"/>
      <point x="660" y="316" type="curve" smooth="yes"/>
      <point x="382" y="316"/>
      <point x="276" y="509"/>
      <point x="276" y="703" type="curve" smooth="yes"/>
      <point x="276" y="902"/>
      <point x="388" y="1105"/>
      <point x="541" y="1105" type="curve" smooth="yes"/>
      <point x="593" y="1105"/>
      <point x="615" y="1075"/>
      <point x="615" y="1045" type="curve" smooth="yes"/>
      <point x="615" y="1015"/>
      <point x="592" y="984"/>
      <point x="556" y="984" type="curve" smooth="yes"/>
      <point x="510" y="984"/>
      <point x="477" y="1009"/>
      <point x="481" y="1124" type="curve"/>
    </contour>
  </outline>
</glyph>
<glyph name="ma-kirat" format="2">
  <advance width="1797"/>
  <unicode hex="16D58"/>
  <outline>
    <contour>
      <point x="1204" y="720" type="curve" smooth="yes"/>
      <point x="1113" y="757"/>
      <point x="929" y="831"/>
      <point x="655" y="945" type="curve" smooth="yes"/>
      <point x="400" y="1051"/>
      <point x="292" y="1091"/>
      <point x="292" y="1209" type="curve" smooth="yes"/>
      <point x="292" y="1283"/>
      <point x="337" y="1321"/>
      <point x="383" y="1321" type="curve" smooth="yes"/>
      <point x="441" y="1321"/>
      <point x="481" y="1271"/>
      <point x="481" y="1163" type="curve" smooth="yes"/>
      <point x="481" y="819"/>
      <point x="476" y="779"/>
      <point x="476" y="435" type="curve" smooth="yes"/>
      <point x="476" y="238"/>
      <point x="476" y="80"/>
      <point x="461" y="0" type="curve"/>
      <point x="661" y="0" type="line"/>
      <point x="661" y="876"/>
      <point x="667" y="1090"/>
      <point x="667" y="1143" type="curve" smooth="yes"/>
      <point x="667" y="1397"/>
      <point x="527" y="1489"/>
      <point x="385" y="1489" type="curve" smooth="yes"/>
      <point x="243" y="1489"/>
      <point x="100" y="1395"/>
      <point x="100" y="1201" type="curve" smooth="yes"/>
      <point x="100" y="946"/>
      <point x="309" y="874"/>
      <point x="623" y="751" type="curve" smooth="yes"/>
      <point x="921" y="634"/>
      <point x="1078" y="563"/>
      <point x="1172" y="526" type="curve" smooth="yes"/>
      <point x="1428" y="423"/>
      <point x="1535" y="380"/>
      <point x="1535" y="262" type="curve" smooth="yes"/>
      <point x="1535" y="188"/>
      <point x="1495" y="150"/>
      <point x="1449" y="150" type="curve" smooth="yes"/>
      <point x="1391" y="150"/>
      <point x="1346" y="200"/>
      <point x="1346" y="308" type="curve" smooth="yes"/>
      <point x="1346" y="652"/>
      <point x="1351" y="692"/>
      <point x="1351" y="1043" type="curve" smooth="yes"/>
      <point x="1351" y="1240"/>
      <point x="1352" y="1250"/>
      <point x="1366" y="1360" type="curve"/>
      <point x="1324" y="1294" type="line"/>
      <point x="1494" y="1294"/>
      <point x="1540" y="1294"/>
      <point x="1655" y="1266" type="curve"/>
      <point x="1655" y="1460" type="line"/>
      <point x="1366" y="1460" type="line"/>
      <point x="1166" y="1460" type="line"/>
      <point x="1166" y="595"/>
      <point x="1160" y="381"/>
      <point x="1160" y="298" type="curve" smooth="yes"/>
      <point x="1160" y="74"/>
      <point x="1300" y="-18"/>
      <point x="1442" y="-18" type="curve" smooth="yes"/>
      <point x="1584" y="-18"/>
      <point x="1720" y="76"/>
      <point x="1720" y="270" type="curve" smooth="yes"/>
      <point x="1720" y="495"/>
      <point x="1519" y="591"/>
    </contour>
  </outline>
</glyph>
<glyph name="pha-kirat" format="2">
  <advance width="1526"/>
  <unicode hex="16D58"/>
  <outline>
    <contour>
      <point x="1032" y="815" type="curve"/>
      <point x="1000" y="1043" type="line"/>
      <point x="943" y="909"/>
      <point x="692" y="701"/>
      <point x="535" y="701" type="curve" smooth="yes"/>
      <point x="398" y="701"/>
      <point x="315" y="778"/>
      <point x="315" y="1005" type="curve"/>
      <point x="315" y="1450" type="line"/>
      <point x="110" y="1450" type="line"/>
      <point x="128" y="1330"/>
      <point x="130" y="1287"/>
      <point x="130" y="1220" type="curve" smooth="yes"/>
      <point x="130" y="1201"/>
      <point x="130" y="964"/>
      <point x="130" y="945" type="curve" smooth="yes"/>
      <point x="130" y="660"/>
      <point x="250" y="515"/>
      <point x="520" y="515" type="curve" smooth="yes"/>
      <point x="734" y="515"/>
      <point x="908" y="698"/>
    </contour>
    <contour>
      <point x="960" y="476" type="line" smooth="yes"/>
      <point x="961" y="295"/>
      <point x="903" y="184"/>
      <point x="842" y="184" type="curve" smooth="yes"/>
      <point x="810" y="184"/>
      <point x="797" y="204"/>
      <point x="797" y="229" type="curve" smooth="yes"/>
      <point x="797" y="364"/>
      <point x="1127" y="600"/>
      <point x="1432" y="600" type="curve" smooth="yes"/>
      <point x="1467" y="600"/>
      <point x="1495" y="600"/>
      <point x="1526" y="597" type="curve"/>
      <point x="1482" y="764" type="line"/>
      <point x="1166" y="781"/>
      <point x="613" y="539"/>
      <point x="613" y="213" type="curve" smooth="yes"/>
      <point x="613" y="93"/>
      <point x="695" y="0"/>
      <point x="824" y="0" type="curve" smooth="yes"/>
      <point x="1122" y="0"/>
      <point x="1145" y="365"/>
      <point x="1145" y="543" type="curve" smooth="yes"/>
      <point x="1145" y="571"/>
      <point x="1144" y="593"/>
      <point x="1144" y="610" type="curve" smooth="yes"/>
      <point x="1135" y="1450" type="line"/>
      <point x="935" y="1450" type="line"/>
      <point x="953" y="1328"/>
      <point x="954" y="1262"/>
      <point x="955" y="1130" type="curve" smooth="yes"/>
    </contour>
  </outline>
</glyph>
<glyph name="bha-kirat" format="2">
  <advance width="1718"/>
  <unicode hex="16D5A"/>
  <outline>
    <contour>
      <point x="934" y="769" type="curve"/>
      <point x="785" y="769" type="line"/>
      <point x="785" y="1140"/>
      <point x="673" y="1320"/>
      <point x="517" y="1320" type="curve" smooth="yes"/>
      <point x="373" y="1320"/>
      <point x="255" y="1200"/>
      <point x="255" y="878" type="curve" smooth="yes"/>
      <point x="255" y="516"/>
      <point x="380" y="180"/>
      <point x="472" y="0" type="curve"/>
      <point x="299" y="0" type="line"/>
      <point x="206" y="180"/>
      <point x="90" y="490"/>
      <point x="90" y="864" type="curve" smooth="yes"/>
      <point x="90" y="1253"/>
      <point x="238" y="1485"/>
      <point x="515" y="1485" type="curve" smooth="yes"/>
      <point x="712" y="1485"/>
      <point x="846" y="1338"/>
      <point x="876" y="1153" type="curve"/>
      <point x="843" y="1153" type="line"/>
      <point x="873" y="1338"/>
      <point x="1007" y="1485"/>
      <point x="1204" y="1485" type="curve" smooth="yes"/>
      <point x="1481" y="1485"/>
      <point x="1629" y="1253"/>
      <point x="1629" y="864" type="curve" smooth="yes"/>
      <point x="1629" y="490"/>
      <point x="1513" y="180"/>
      <point x="1420" y="0" type="curve"/>
      <point x="1247" y="0" type="line"/>
      <point x="1339" y="180"/>
      <point x="1464" y="516"/>
      <point x="1464" y="878" type="curve" smooth="yes"/>
      <point x="1464" y="1200"/>
      <point x="1346" y="1320"/>
      <point x="1202" y="1320" type="curve" smooth="yes"/>
      <point x="1046" y="1320"/>
      <point x="934" y="1140"/>
    </contour>
  </outline>
</glyph>
<glyph name="la-kirat" format="2">
  <advance width="1697"/>
  <unicode hex="16D5B"/>
  <outline>
    <contour>
      <point x="572" y="1162" type="curve" smooth="yes"/>
      <point x="572" y="945"/>
      <point x="351" y="831"/>
      <point x="351" y="561" type="curve" smooth="yes"/>
      <point x="351" y="306"/>
      <point x="588" y="165"/>
      <point x="839" y="165" type="curve" smooth="yes"/>
      <point x="1122" y="165"/>
      <point x="1422" y="344"/>
      <point x="1422" y="745" type="curve" smooth="yes"/>
      <point x="1422" y="913"/>
      <point x="1411" y="1010"/>
      <point x="1387" y="1117" type="curve"/>
      <point x="1553" y="1227" type="line"/>
      <point x="1584" y="1098"/>
      <point x="1608" y="977"/>
      <point x="1608" y="786" type="curve" smooth="yes"/>
      <point x="1608" y="239"/>
      <point x="1213" y="-3"/>
      <point x="836" y="-3" type="curve" smooth="yes"/>
      <point x="494" y="-3"/>
      <point x="167" y="198"/>
      <point x="167" y="552" type="curve" smooth="yes"/>
      <point x="167" y="857"/>
      <point x="386" y="985"/>
      <point x="386" y="1177" type="curve" smooth="yes"/>
      <point x="386" y="1233"/>
      <point x="365" y="1296"/>
      <point x="294" y="1296" type="curve" smooth="yes"/>
      <point x="248" y="1296"/>
      <point x="226" y="1267"/>
      <point x="226" y="1237" type="curve" smooth="yes"/>
      <point x="226" y="1204"/>
      <point x="248" y="1170"/>
      <point x="310" y="1170" type="curve" smooth="yes"/>
      <point x="490" y="1170"/>
      <point x="713" y="1293"/>
      <point x="913" y="1293" type="curve" smooth="yes"/>
      <point x="1129" y="1293"/>
      <point x="1221" y="1171"/>
      <point x="1221" y="1049" type="curve" smooth="yes"/>
      <point x="1221" y="926"/>
      <point x="1128" y="803"/>
      <point x="975" y="803" type="curve" smooth="yes"/>
      <point x="770" y="803"/>
      <point x="699" y="953"/>
      <point x="699" y="1147" type="curve" smooth="yes"/>
      <point x="699" y="1248"/>
      <point x="702" y="1361"/>
      <point x="712" y="1470" type="curve"/>
      <point x="898" y="1470" type="line"/>
      <point x="894" y="1391"/>
      <point x="882" y="1251"/>
      <point x="882" y="1128" type="curve" smooth="yes"/>
      <point x="882" y="1045"/>
      <point x="908" y="983"/>
      <point x="969" y="983" type="curve" smooth="yes"/>
      <point x="1010" y="983"/>
      <point x="1036" y="1009"/>
      <point x="1036" y="1046" type="curve" smooth="yes"/>
      <point x="1036" y="1087"/>
      <point x="1002" y="1121"/>
      <point x="927" y="1121" type="curve" smooth="yes"/>
      <point x="713" y="1121"/>
      <point x="545" y="994"/>
      <point x="317" y="994" type="curve" smooth="yes"/>
      <point x="128" y="994"/>
      <point x="44" y="1107"/>
      <point x="44" y="1221" type="curve" smooth="yes"/>
      <point x="44" y="1339"/>
      <point x="134" y="1460"/>
      <point x="293" y="1460" type="curve" smooth="yes"/>
      <point x="502" y="1460"/>
      <point x="572" y="1297"/>
    </contour>
  </outline>
</glyph>
<glyph name="ya-kirat" format="2">
  <advance width="1740"/>
  <unicode hex="16D5C"/>
  <outline>
    <contour>
      <point x="612" y="-7" type="curve" smooth="yes"/>
      <point x="1223" y="-7"/>
      <point x="1558" y="774"/>
      <point x="1558" y="1161" type="curve" smooth="yes"/>
      <point x="1558" y="1371"/>
      <point x="1447" y="1484"/>
      <point x="1318" y="1484" type="curve" smooth="yes"/>
      <point x="1107" y="1484"/>
      <point x="988" y="1298"/>
      <point x="988" y="784" type="curve" smooth="yes"/>
      <point x="988" y="539"/>
      <point x="991" y="-4"/>
      <point x="1309" y="-4" type="curve" smooth="yes"/>
      <point x="1450" y="-4"/>
      <point x="1581" y="111"/>
      <point x="1680" y="384" type="curve"/>
      <point x="1530" y="450" type="line"/>
      <point x="1478" y="309"/>
      <point x="1404" y="161"/>
      <point x="1316" y="161" type="curve" smooth="yes"/>
      <point x="1155" y="161"/>
      <point x="1153" y="655"/>
      <point x="1153" y="783" type="curve" smooth="yes"/>
      <point x="1153" y="1090"/>
      <point x="1201" y="1319"/>
      <point x="1308" y="1319" type="curve" smooth="yes"/>
      <point x="1352" y="1319"/>
      <point x="1392" y="1280"/>
      <point x="1392" y="1159" type="curve" smooth="yes"/>
      <point x="1392" y="791"/>
      <point x="1064" y="158"/>
      <point x="604" y="158" type="curve" smooth="yes"/>
      <point x="306" y="158"/>
      <point x="273" y="370"/>
      <point x="273" y="601" type="curve" smooth="yes"/>
      <point x="273" y="653"/>
      <point x="279" y="704"/>
      <point x="291" y="749" type="curve"/>
      <point x="235" y="614" type="line"/>
      <point x="682" y="644"/>
      <point x="880" y="866"/>
      <point x="880" y="1100" type="curve" smooth="yes"/>
      <point x="880" y="1379"/>
      <point x="654" y="1485"/>
      <point x="409" y="1485" type="curve" smooth="yes"/>
      <point x="300" y="1485"/>
      <point x="188" y="1464"/>
      <point x="90" y="1428" type="curve"/>
      <point x="122" y="1267" type="line"/>
      <point x="192" y="1296"/>
      <point x="297" y="1320"/>
      <point x="422" y="1320" type="curve" smooth="yes"/>
      <point x="560" y="1320"/>
      <point x="715" y="1271"/>
      <point x="715" y="1096" type="curve" smooth="yes"/>
      <point x="715" y="949"/>
      <point x="556" y="783"/>
      <point x="133" y="764" type="curve"/>
      <point x="120" y="730"/>
      <point x="109" y="668"/>
      <point x="109" y="566" type="curve" smooth="yes"/>
      <point x="109" y="320"/>
      <point x="182" y="-7"/>
    </contour>
  </outline>
</glyph>
<glyph name="ra-kirat" format="2">
  <advance width="1713"/>
  <unicode hex="16D5D"/>
  <outline>
    <contour>
      <point x="796" y="610" type="curve" smooth="yes"/>
      <point x="993" y="284"/>
      <point x="1132" y="156"/>
      <point x="1253" y="156" type="curve" smooth="yes"/>
      <point x="1371" y="156"/>
      <point x="1423" y="222"/>
      <point x="1492" y="327" type="curve"/>
      <point x="1623" y="238" type="line"/>
      <point x="1514" y="67"/>
      <point x="1401" y="-9"/>
      <point x="1255" y="-9" type="curve" smooth="yes"/>
      <point x="1047" y="-9"/>
      <point x="879" y="167"/>
      <point x="675" y="501" type="curve" smooth="yes"/>
      <point x="541" y="721"/>
      <point x="479" y="821"/>
      <point x="342" y="821" type="curve" smooth="yes"/>
      <point x="263" y="821"/>
      <point x="212" y="768"/>
      <point x="212" y="713" type="curve" smooth="yes"/>
      <point x="212" y="653"/>
      <point x="251" y="590"/>
      <point x="353" y="590" type="curve" smooth="yes"/>
      <point x="510" y="590"/>
      <point x="609" y="729"/>
      <point x="780" y="987" type="curve" smooth="yes"/>
      <point x="935" y="1221"/>
      <point x="1101" y="1466"/>
      <point x="1304" y="1466" type="curve" smooth="yes"/>
      <point x="1469" y="1466"/>
      <point x="1551" y="1350"/>
      <point x="1551" y="1234" type="curve" smooth="yes"/>
      <point x="1551" y="1081"/>
      <point x="1432" y="995"/>
      <point x="1310" y="995" type="curve" smooth="yes"/>
      <point x="1195" y="995"/>
      <point x="1076" y="1072"/>
      <point x="1051" y="1248" type="curve"/>
      <point x="1184" y="1308" type="line"/>
      <point x="1184" y="1204"/>
      <point x="1250" y="1160"/>
      <point x="1306" y="1160" type="curve" smooth="yes"/>
      <point x="1349" y="1160"/>
      <point x="1386" y="1185"/>
      <point x="1386" y="1230" type="curve" smooth="yes"/>
      <point x="1386" y="1265"/>
      <point x="1359" y="1301"/>
      <point x="1305" y="1301" type="curve" smooth="yes"/>
      <point x="1183" y="1301"/>
      <point x="1023" y="1061"/>
      <point x="878" y="843" type="curve" smooth="yes"/>
      <point x="737" y="630"/>
      <point x="601" y="425"/>
      <point x="349" y="425" type="curve" smooth="yes"/>
      <point x="145" y="425"/>
      <point x="47" y="560"/>
      <point x="47" y="698" type="curve" smooth="yes"/>
      <point x="47" y="840"/>
      <point x="152" y="985"/>
      <point x="343" y="985" type="curve" smooth="yes"/>
      <point x="561" y="985"/>
      <point x="663" y="830"/>
    </contour>
  </outline>
</glyph>
<glyph name="va-kirat" format="2">
  <advance width="1436"/>
  <unicode hex="16D5F"/>
  <outline>
    <contour>
      <point x="831" y="634" type="curve" smooth="yes"/>
      <point x="831" y="447"/>
      <point x="665" y="384"/>
      <point x="495" y="320" type="curve" smooth="yes"/>
      <point x="356" y="268"/>
      <point x="215" y="215"/>
      <point x="156" y="94" type="curve"/>
      <point x="30" y="196" type="line"/>
      <point x="106" y="352"/>
      <point x="287" y="417"/>
      <point x="437" y="470" type="curve" smooth="yes"/>
      <point x="563" y="515"/>
      <point x="667" y="553"/>
      <point x="667" y="630" type="curve" smooth="yes"/>
      <point x="667" y="674"/>
      <point x="638" y="701"/>
      <point x="595" y="701" type="curve" smooth="yes"/>
      <point x="497" y="701"/>
      <point x="449" y="600"/>
      <point x="449" y="482" type="curve" smooth="yes"/>
      <point x="449" y="326"/>
      <point x="544" y="160"/>
      <point x="797" y="160" type="curve" smooth="yes"/>
      <point x="1110" y="160"/>
      <point x="1171" y="429"/>
      <point x="1171" y="679" type="curve" smooth="yes"/>
      <point x="1171" y="986"/>
      <point x="1158" y="1437"/>
      <point x="1154" y="1460" type="curve"/>
      <point x="1317" y="1460" type="line"/>
      <point x="1326" y="764"/>
      <point x="1326" y="744"/>
      <point x="1326" y="722" type="curve" smooth="yes"/>
      <point x="1326" y="311"/>
      <point x="1205" y="-5"/>
      <point x="789" y="-5" type="curve" smooth="yes"/>
      <point x="443" y="-5"/>
      <point x="286" y="251"/>
      <point x="286" y="486" type="curve" smooth="yes"/>
      <point x="286" y="684"/>
      <point x="398" y="866"/>
      <point x="602" y="866" type="curve" smooth="yes"/>
      <point x="719" y="866"/>
      <point x="831" y="783"/>
    </contour>
  </outline>
</glyph>
<glyph name="sa-kirat" format="2">
  <advance width="1170"/>
  <unicode hex="16D60"/>
  <outline>
    <contour>
      <point x="682" y="140" type="line"/>
      <point x="386" y="250"/>
      <point x="270" y="446"/>
      <point x="270" y="644" type="curve" smooth="yes"/>
      <point x="270" y="864"/>
      <point x="425" y="973"/>
      <point x="556" y="973" type="curve" smooth="yes"/>
      <point x="698" y="973"/>
      <point x="792" y="904"/>
      <point x="885" y="833" type="curve"/>
      <point x="975" y="1027"/>
      <point x="1068" y="1183"/>
      <point x="1170" y="1460" type="curve"/>
      <point x="313" y="1460" type="line"/>
      <point x="243" y="1255" type="line"/>
      <point x="323" y="1272"/>
      <point x="399" y="1275"/>
      <point x="488" y="1275" type="curve" smooth="yes"/>
      <point x="1038" y="1275" type="line"/>
      <point x="940" y="1366" type="line"/>
      <point x="864" y="1185"/>
      <point x="827" y="1100"/>
      <point x="753" y="972" type="curve"/>
      <point x="924" y="1019" type="line"/>
      <point x="815" y="1108"/>
      <point x="686" y="1153"/>
      <point x="562" y="1153" type="curve" smooth="yes"/>
      <point x="315" y="1153"/>
      <point x="90" y="955"/>
      <point x="90" y="657" type="curve" smooth="yes"/>
      <point x="90" y="356"/>
      <point x="245" y="140"/>
      <point x="590" y="-20" type="curve"/>
    </contour>
  </outline>
</glyph>
<glyph name="sha-kirat" format="2">
  <advance width="2541"/>
  <unicode hex="16D61"/>
  <outline>
    <contour>
      <point x="1082" y="-7" type="curve" smooth="yes"/>
      <point x="1420" y="-7"/>
      <point x="1762" y="742"/>
      <point x="1762" y="1189" type="curve" smooth="yes"/>
      <point x="1762" y="1305"/>
      <point x="1714" y="1484"/>
      <point x="1538" y="1484" type="curve" smooth="yes"/>
      <point x="1317" y="1484"/>
      <point x="1212" y="1298"/>
      <point x="1212" y="844" type="curve" smooth="yes"/>
      <point x="1212" y="595"/>
      <point x="1208" y="7"/>
      <point x="1629" y="0" type="curve" smooth="yes"/>
      <point x="2034" y="-7"/>
      <point x="2374" y="784"/>
      <point x="2374" y="1171" type="curve" smooth="yes"/>
      <point x="2374" y="1361"/>
      <point x="2287" y="1484"/>
      <point x="2148" y="1484" type="curve" smooth="yes"/>
      <point x="1927" y="1484"/>
      <point x="1822" y="1298"/>
      <point x="1822" y="844" type="curve" smooth="yes"/>
      <point x="1822" y="595"/>
      <point x="1789" y="0"/>
      <point x="2120" y="0" type="curve" smooth="yes"/>
      <point x="2261" y="0"/>
      <point x="2392" y="111"/>
      <point x="2491" y="384" type="curve"/>
      <point x="2329" y="470" type="line"/>
      <point x="2277" y="309"/>
      <point x="2205" y="180"/>
      <point x="2127" y="180" type="curve" smooth="yes"/>
      <point x="1998" y="180"/>
      <point x="2002" y="430"/>
      <point x="2002" y="783" type="curve" smooth="yes"/>
      <point x="2002" y="1060"/>
      <point x="2031" y="1304"/>
      <point x="2128" y="1304" type="curve" smooth="yes"/>
      <point x="2170" y="1304"/>
      <point x="2190" y="1255"/>
      <point x="2190" y="1139" type="curve" smooth="yes"/>
      <point x="2190" y="800"/>
      <point x="1905" y="180"/>
      <point x="1641" y="180" type="curve" smooth="yes"/>
      <point x="1397" y="180"/>
      <point x="1392" y="568"/>
      <point x="1392" y="783" type="curve" smooth="yes"/>
      <point x="1392" y="1060"/>
      <point x="1421" y="1304"/>
      <point x="1518" y="1304" type="curve" smooth="yes"/>
      <point x="1562" y="1304"/>
      <point x="1582" y="1255"/>
      <point x="1582" y="1159" type="curve" smooth="yes"/>
      <point x="1582" y="747"/>
      <point x="1269" y="173"/>
      <point x="1094" y="173" type="curve" smooth="yes"/>
      <point x="898" y="173"/>
      <point x="838" y="653"/>
      <point x="447" y="653" type="curve" smooth="yes"/>
      <point x="220" y="653"/>
      <point x="90" y="489"/>
      <point x="90" y="325" type="curve" smooth="yes"/>
      <point x="90" y="113"/>
      <point x="272" y="-6"/>
      <point x="488" y="-6" type="curve" smooth="yes"/>
      <point x="744" y="-6"/>
      <point x="1104" y="249"/>
      <point x="1104" y="839" type="curve" smooth="yes"/>
      <point x="1104" y="1302"/>
      <point x="814" y="1490"/>
      <point x="547" y="1490" type="curve" smooth="yes"/>
      <point x="317" y="1490"/>
      <point x="104" y="1352"/>
      <point x="104" y="1130" type="curve" smooth="yes"/>
      <point x="104" y="965"/>
      <point x="225" y="887"/>
      <point x="359" y="887" type="curve" smooth="yes"/>
      <point x="478" y="887"/>
      <point x="610" y="972"/>
      <point x="610" y="1129" type="curve" smooth="yes"/>
      <point x="610" y="1227"/>
      <point x="545" y="1318"/>
      <point x="412" y="1318" type="curve" smooth="yes"/>
      <point x="397" y="1318"/>
      <point x="344" y="1313"/>
      <point x="333" y="1312" type="curve"/>
      <point x="281" y="1222" type="line"/>
      <point x="389" y="1227"/>
      <point x="430" y="1175"/>
      <point x="430" y="1138" type="curve" smooth="yes"/>
      <point x="430" y="1089"/>
      <point x="389" y="1066"/>
      <point x="353" y="1066" type="curve" smooth="yes"/>
      <point x="319" y="1066"/>
      <point x="284" y="1088"/>
      <point x="284" y="1138" type="curve" smooth="yes"/>
      <point x="284" y="1227"/>
      <point x="405" y="1310"/>
      <point x="541" y="1310" type="curve" smooth="yes"/>
      <point x="719" y="1310"/>
      <point x="924" y="1177"/>
      <point x="924" y="812" type="curve" smooth="yes"/>
      <point x="924" y="375"/>
      <point x="667" y="174"/>
      <point x="488" y="174" type="curve" smooth="yes"/>
      <point x="358" y="174"/>
      <point x="270" y="236"/>
      <point x="270" y="329" type="curve" smooth="yes"/>
      <point x="270" y="402"/>
      <point x="338" y="473"/>
      <point x="450" y="473" type="curve" smooth="yes"/>
      <point x="746" y="473"/>
      <point x="756" y="-7"/>
    </contour>
  </outline>
</glyph>
<glyph name="ha-kirat" format="2">
  <advance width="1760"/>
  <unicode hex="16D62"/>
  <outline>
    <contour>
      <point x="771" y="177"/>
      <point x="950" y="386"/>
      <point x="950" y="589" type="curve" smooth="yes"/>
      <point x="950" y="792"/>
      <point x="892" y="1005"/>
      <point x="499" y="1005" type="curve" smooth="yes"/>
      <point x="357" y="1005"/>
      <point x="315" y="976"/>
      <point x="315" y="953" type="curve" smooth="yes"/>
      <point x="315" y="938"/>
      <point x="334" y="925"/>
      <point x="367" y="925" type="curve" smooth="yes"/>
      <point x="555" y="925"/>
      <point x="843" y="1275"/>
      <point x="931" y="1402" type="curve"/>
      <point x="1010" y="1275" type="line"/>
      <point x="826" y="1275"/>
      <point x="465" y="1275"/>
      <point x="146" y="1275" type="curve"/>
      <point x="98" y="1460" type="line"/>
      <point x="1166" y="1460" type="line"/>
      <point x="1158" y="1333" type="line"/>
      <point x="954" y="1158"/>
      <point x="657" y="741"/>
      <point x="371" y="741" type="curve" smooth="yes"/>
      <point x="240" y="741"/>
      <point x="131" y="814"/>
      <point x="131" y="947" type="curve" smooth="yes"/>
      <point x="131" y="1056"/>
      <point x="221" y="1189"/>
      <point x="506" y="1189" type="curve" smooth="yes"/>
      <point x="988" y="1189"/>
      <point x="1135" y="897"/>
      <point x="1135" y="584" type="curve" smooth="yes"/>
      <point x="1135" y="289"/>
      <point x="883" y="-7"/>
      <point x="520" y="-7" type="curve" smooth="yes"/>
      <point x="244" y="-7"/>
      <point x="90" y="159"/>
      <point x="90" y="324" type="curve" smooth="yes"/>
      <point x="90" y="472"/>
      <point x="194" y="616"/>
      <point x="559" y="616" type="curve" smooth="yes"/>
      <point x="748" y="616"/>
      <point x="892" y="611"/>
      <point x="1492" y="603" type="curve"/>
      <point x="1524" y="455" type="line"/>
      <point x="1368" y="442"/>
      <point x="1291" y="351"/>
      <point x="1293" y="280" type="curve" smooth="yes"/>
      <point x="1297" y="133"/>
      <point x="1487" y="146"/>
      <point x="1575" y="262" type="curve"/>
      <point x="1670" y="127" type="line"/>
      <point x="1582" y="33"/>
      <point x="1480" y="-7"/>
      <point x="1388" y="-7" type="curve" smooth="yes"/>
      <point x="1237" y="-7"/>
      <point x="1111" y="101"/>
      <point x="1109" y="258" type="curve" smooth="yes"/>
      <point x="1108" y="343"/>
      <point x="1147" y="425"/>
      <point x="1217" y="467" type="curve"/>
      <point x="1231" y="421" type="line"/>
      <point x="1037" y="426"/>
      <point x="633" y="430"/>
      <point x="510" y="430" type="curve" smooth="yes"/>
      <point x="306" y="430"/>
      <point x="277" y="381"/>
      <point x="277" y="327" type="curve" smooth="yes"/>
      <point x="277" y="257"/>
      <point x="361" y="177"/>
      <point x="521" y="177" type="curve" smooth="yes"/>
    </contour>
  </outline>
</glyph>
<glyph name="aaMatra-kirat" format="2">
  <advance width="420"/>
  <unicode hex="16D63"/>
  <outline>
    <contour>
      <point x="122" y="0" type="curve"/>
      <point x="299" y="0" type="line"/>
      <point x="299" y="1460" type="line"/>
      <point x="122" y="1460" type="line"/>
      <point x="136" y="1400"/>
      <point x="144" y="1067"/>
      <point x="144" y="731" type="curve" smooth="yes"/>
      <point x="144" y="407"/>
      <point x="137" y="82"/>
    </contour>
  </outline>
</glyph>
<glyph name="eMatra-kirat" format="2">
  <advance width="985"/>
  <unicode hex="16D64"/>
  <outline>
    <contour>
      <point x="178" y="927" type="line"/>
      <point x="399" y="923"/>
      <point x="821" y="921"/>
      <point x="905" y="938" type="curve"/>
      <point x="905" y="975"/>
      <point x="903" y="1485"/>
      <point x="514" y="1485" type="curve" smooth="yes"/>
      <point x="238" y="1485"/>
      <point x="80" y="1245"/>
      <point x="80" y="906" type="curve" smooth="yes"/>
      <point x="80" y="381"/>
      <point x="378" y="45"/>
      <point x="828" y="-3" type="curve"/>
      <point x="881" y="175" type="line"/>
      <point x="511" y="219"/>
      <point x="264" y="424"/>
      <point x="264" y="923" type="curve" smooth="yes"/>
      <point x="264" y="1190"/>
      <point x="382" y="1300"/>
      <point x="509" y="1300" type="curve" smooth="yes"/>
      <point x="639" y="1300"/>
      <point x="690" y="1186"/>
      <point x="698" y="1083" type="curve"/>
      <point x="745" y="1109" type="line"/>
      <point x="201" y="1109" type="line"/>
    </contour>
  </outline>
</glyph>
<glyph name="iMatra-kirat" format="2">
  <advance width="881"/>
  <unicode hex="16D64"/>
  <outline>
    <contour>
      <point x="94" y="0" type="line"/>
      <point x="94" y="180" type="line"/>
      <point x="174" y="166"/>
      <point x="308" y="165"/>
      <point x="445" y="165" type="curve" smooth="yes"/>
      <point x="779" y="165" type="line"/>
      <point x="713" y="90" type="line"/>
      <point x="440" y="671"/>
      <point x="358" y="869"/>
      <point x="62" y="1460" type="curve"/>
      <point x="255" y="1460" type="line"/>
      <point x="941" y="0" type="line"/>
    </contour>
  </outline>
</glyph>
<glyph name="uMatra-kirat" format="2">
  <advance width="1359"/>
  <unicode hex="16D65"/>
  <outline>
    <contour>
      <point x="1257" y="-8" type="curve"/>
      <point x="1379" y="101" type="line"/>
      <point x="1252" y="282"/>
      <point x="1103" y="534"/>
      <point x="786" y="534" type="curve" smooth="yes"/>
      <point x="584" y="534"/>
      <point x="483" y="398"/>
      <point x="483" y="261" type="curve" smooth="yes"/>
      <point x="483" y="125"/>
      <point x="590" y="-12"/>
      <point x="778" y="-12" type="curve" smooth="yes"/>
      <point x="959" y="-12"/>
      <point x="1176" y="129"/>
      <point x="1176" y="739" type="curve" smooth="yes"/>
      <point x="1176" y="1178"/>
      <point x="1024" y="1485"/>
      <point x="647" y="1485" type="curve" smooth="yes"/>
      <point x="188" y="1485"/>
      <point x="110" y="1122"/>
      <point x="110" y="707" type="curve" smooth="yes"/>
      <point x="110" y="511"/>
      <point x="114" y="184"/>
      <point x="122" y="-1" type="curve"/>
      <point x="288" y="-1" type="line"/>
      <point x="280" y="186"/>
      <point x="275" y="555"/>
      <point x="275" y="795" type="curve" smooth="yes"/>
      <point x="275" y="1024"/>
      <point x="312" y="1320"/>
      <point x="633" y="1320" type="curve" smooth="yes"/>
      <point x="887" y="1320"/>
      <point x="1011" y="1155"/>
      <point x="1011" y="731" type="curve" smooth="yes"/>
      <point x="1011" y="288"/>
      <point x="902" y="153"/>
      <point x="775" y="153" type="curve" smooth="yes"/>
      <point x="693" y="153"/>
      <point x="648" y="208"/>
      <point x="648" y="263" type="curve" smooth="yes"/>
      <point x="648" y="316"/>
      <point x="691" y="369"/>
      <point x="786" y="369" type="curve" smooth="yes"/>
      <point x="1000" y="369"/>
      <point x="1153" y="153"/>
    </contour>
  </outline>
</glyph>
<glyph name="ueMatra-kirat" format="2">
  <advance width="1649"/>
  <unicode hex="16D66"/>
  <outline>
    <component base="uMatra-kirat"/>
    <contour>
      <point x="1425" y="257" type="curve" smooth="yes"/>
      <point x="1543" y="257"/>
      <point x="1639" y="353"/>
      <point x="1639" y="472" type="curve" smooth="yes"/>
      <point x="1639" y="590"/>
      <point x="1543" y="686"/>
      <point x="1425" y="686" type="curve" smooth="yes"/>
      <point x="1306" y="686"/>
      <point x="1210" y="590"/>
      <point x="1210" y="472" type="curve" smooth="yes"/>
      <point x="1210" y="353"/>
      <point x="1306" y="257"/>
    </contour>
    <contour>
      <point x="1425" y="391" type="curve" smooth="yes"/>
      <point x="1380" y="391"/>
      <point x="1344" y="427"/>
      <point x="1344" y="472" type="curve" smooth="yes"/>
      <point x="1344" y="516"/>
      <point x="1380" y="552"/>
      <point x="1425" y="552" type="curve" smooth="yes"/>
      <point x="1469" y="552"/>
      <point x="1505" y="516"/>
      <point x="1505" y="472" type="curve" smooth="yes"/>
      <point x="1505" y="427"/>
      <point x="1469" y="391"/>
    </contour>
  </outline>
</glyph>
<glyph name="halant-kirat" format="2">
  <advance width="695"/>
  <unicode hex="16D6B"/>
  <outline>
    <contour>
      <point x="50" y="185" type="line"/>
      <point x="50" y="0" type="line"/>
      <point x="645" y="0" type="line"/>
      <point x="645" y="185" type="line"/>
    </contour>
  </outline>
</glyph>
<glyph name="saat-kirat" format="2">
  <advance width="664"/>
  <unicode hex="16D6C"/>
  <outline>
    <contour>
      <point x="332" y="229" type="line"/>
      <point x="199" y="0" type="line"/>
      <point x="12" y="0" type="line"/>
      <point x="332" y="566" type="line"/>
      <point x="652" y="0" type="line"/>
      <point x="465" y="0" type="line"/>
    </contour>
  </outline>
</glyph>
<glyph name="yupi-kirat" format="2">
  <advance width="655"/>
  <unicode hex="16D6D"/>
  <outline>
    <contour>
      <point x="328" y="-5" type="curve" smooth="yes"/>
      <point x="481" y="-5"/>
      <point x="605" y="119"/>
      <point x="605" y="273" type="curve" smooth="yes"/>
      <point x="605" y="426"/>
      <point x="481" y="550"/>
      <point x="328" y="550" type="curve" smooth="yes"/>
      <point x="174" y="550"/>
      <point x="50" y="426"/>
      <point x="50" y="273" type="curve" smooth="yes"/>
      <point x="50" y="119"/>
      <point x="174" y="-5"/>
    </contour>
    <contour>
      <point x="328" y="169" type="curve" smooth="yes"/>
      <point x="271" y="169"/>
      <point x="224" y="216"/>
      <point x="224" y="273" type="curve" smooth="yes"/>
      <point x="224" y="330"/>
      <point x="271" y="377"/>
      <point x="328" y="377" type="curve" smooth="yes"/>
      <point x="385" y="377"/>
      <point x="432" y="330"/>
      <point x="432" y="273" type="curve" smooth="yes"/>
      <point x="432" y="216"/>
      <point x="385" y="169"/>
    </contour>
  </outline>
</glyph>
<glyph name="danda-kirat" format="2">
  <advance width="846"/>
  <unicode hex="16D6E"/>
  <outline>
    <contour>
      <point x="650" y="1485" type="line"/>
      <point x="440" y="968"/>
      <point x="245" y="517"/>
      <point x="10" y="0" type="curve"/>
      <point x="193" y="0" type="line"/>
      <point x="413" y="517"/>
      <point x="608" y="968"/>
      <point x="833" y="1485" type="curve"/>
    </contour>
  </outline>
</glyph>
<glyph name="zero-kirat" format="2">
  <advance width="1100"/>
  <unicode hex="16D70"/>
  <anchor x="555" y="-90" name="L"/>
  <anchor x="555" y="1540" name="U"/>
  <outline>
    <contour>
      <point x="810" y="725" type="curve" smooth="yes"/>
      <point x="810" y="358"/>
      <point x="692" y="165"/>
      <point x="550" y="165" type="curve" smooth="yes"/>
      <point x="402" y="165"/>
      <point x="290" y="355"/>
      <point x="290" y="755" type="curve" smooth="yes"/>
      <point x="290" y="1123"/>
      <point x="407" y="1315"/>
      <point x="550" y="1315" type="curve" smooth="yes"/>
      <point x="702" y="1315"/>
      <point x="810" y="1126"/>
    </contour>
    <contour>
      <point x="1010" y="750" type="curve" smooth="yes"/>
      <point x="1010" y="1256"/>
      <point x="800" y="1495"/>
      <point x="560" y="1495" type="curve" smooth="yes"/>
      <point x="321" y="1495"/>
      <point x="90" y="1253"/>
      <point x="90" y="730" type="curve" smooth="yes"/>
      <point x="90" y="205"/>
      <point x="301" y="-15"/>
      <point x="540" y="-15" type="curve" smooth="yes"/>
      <point x="781" y="-15"/>
      <point x="1010" y="201"/>
    </contour>
  </outline>
</glyph>
<glyph name="one-kirat" format="2">
  <advance width="807"/>
  <unicode hex="16D71"/>
  <outline>
    <contour>
      <point x="688" y="1177" type="curve" smooth="yes"/>
      <point x="688" y="1321"/>
      <point x="604" y="1492"/>
      <point x="385" y="1492" type="curve" smooth="yes"/>
      <point x="191" y="1492"/>
      <point x="95" y="1353"/>
      <point x="95" y="1216" type="curve" smooth="yes"/>
      <point x="95" y="1083"/>
      <point x="186" y="950"/>
      <point x="366" y="950" type="curve" smooth="yes"/>
      <point x="491" y="950"/>
      <point x="617" y="1036"/>
      <point x="645" y="1181" type="curve"/>
      <point x="615" y="1324"/>
      <point x="601" y="1328"/>
      <point x="563" y="1340" type="curve"/>
      <point x="547" y="1198"/>
      <point x="488" y="1133"/>
      <point x="382" y="1133" type="curve" smooth="yes"/>
      <point x="314" y="1133"/>
      <point x="281" y="1175"/>
      <point x="281" y="1217" type="curve" smooth="yes"/>
      <point x="281" y="1262"/>
      <point x="317" y="1307"/>
      <point x="383" y="1307" type="curve" smooth="yes"/>
      <point x="453" y="1307"/>
      <point x="504" y="1256"/>
      <point x="504" y="1155" type="curve" smooth="yes"/>
      <point x="504" y="955"/>
      <point x="90" y="638"/>
      <point x="90" y="331" type="curve" smooth="yes"/>
      <point x="90" y="121"/>
      <point x="229" y="-6"/>
      <point x="410" y="-6" type="curve" smooth="yes"/>
      <point x="616" y="-6"/>
      <point x="717" y="137"/>
      <point x="717" y="278" type="curve" smooth="yes"/>
      <point x="717" y="419"/>
      <point x="618" y="558"/>
      <point x="427" y="558" type="curve" smooth="yes"/>
      <point x="317" y="558"/>
      <point x="213" y="480"/>
      <point x="198" y="318" type="curve"/>
      <point x="280" y="189" type="line"/>
      <point x="280" y="330"/>
      <point x="349" y="379"/>
      <point x="415" y="379" type="curve" smooth="yes"/>
      <point x="498" y="379"/>
      <point x="537" y="330"/>
      <point x="537" y="280" type="curve" smooth="yes"/>
      <point x="537" y="227"/>
      <point x="495" y="174"/>
      <point x="418" y="174" type="curve" smooth="yes"/>
      <point x="339" y="174"/>
      <point x="269" y="224"/>
      <point x="269" y="344" type="curve" smooth="yes"/>
      <point x="269" y="554"/>
      <point x="688" y="872"/>
    </contour>
  </outline>
</glyph>
<glyph name="two-kirat" format="2">
  <advance width="1194"/>
  <unicode hex="16D72"/>
  <outline>
    <contour>
      <point x="311" y="923" type="line"/>
      <point x="376" y="1092"/>
      <point x="541" y="1301"/>
      <point x="671" y="1456" type="curve"/>
      <point x="465" y="1514" type="line"/>
      <point x="355" y="1366"/>
      <point x="204" y="1138"/>
      <point x="94" y="930" type="curve"/>
      <point x="254" y="860" type="line"/>
      <point x="342" y="935"/>
      <point x="461" y="966"/>
      <point x="566" y="966" type="curve" smooth="yes"/>
      <point x="756" y="966"/>
      <point x="919" y="844"/>
      <point x="919" y="579" type="curve" smooth="yes"/>
      <point x="919" y="370"/>
      <point x="791" y="180"/>
      <point x="556" y="180" type="curve" smooth="yes"/>
      <point x="421" y="180"/>
      <point x="274" y="234"/>
      <point x="274" y="336" type="curve" smooth="yes"/>
      <point x="274" y="373"/>
      <point x="300" y="424"/>
      <point x="355" y="424" type="curve" smooth="yes"/>
      <point x="394" y="424"/>
      <point x="431" y="396"/>
      <point x="431" y="348" type="curve" smooth="yes"/>
      <point x="431" y="300"/>
      <point x="396" y="252"/>
      <point x="333" y="220" type="curve"/>
      <point x="436" y="123" type="line"/>
      <point x="565" y="177"/>
      <point x="622" y="273"/>
      <point x="622" y="366" type="curve" smooth="yes"/>
      <point x="622" y="486"/>
      <point x="525" y="599"/>
      <point x="362" y="599" type="curve" smooth="yes"/>
      <point x="183" y="599"/>
      <point x="90" y="475"/>
      <point x="90" y="339" type="curve" smooth="yes"/>
      <point x="90" y="134"/>
      <point x="283" y="-5"/>
      <point x="535" y="-5" type="curve" smooth="yes"/>
      <point x="914" y="-5"/>
      <point x="1104" y="286"/>
      <point x="1104" y="590" type="curve" smooth="yes"/>
      <point x="1104" y="955"/>
      <point x="847" y="1151"/>
      <point x="582" y="1151" type="curve" smooth="yes"/>
      <point x="479" y="1151"/>
      <point x="355" y="1122"/>
      <point x="265" y="1062" type="curve"/>
    </contour>
  </outline>
</glyph>
<glyph name="three-kirat" format="2">
  <advance width="1174"/>
  <unicode hex="16D73"/>
  <outline>
    <contour>
      <point x="535" y="-5" type="curve" smooth="yes"/>
      <point x="904" y="-5"/>
      <point x="1081" y="236"/>
      <point x="1081" y="459" type="curve" smooth="yes"/>
      <point x="1081" y="652"/>
      <point x="949" y="832"/>
      <point x="679" y="832" type="curve"/>
      <point x="619" y="727" type="line"/>
      <point x="798" y="759"/>
      <point x="889" y="893"/>
      <point x="889" y="1023" type="curve" smooth="yes"/>
      <point x="889" y="1165"/>
      <point x="782" y="1303"/>
      <point x="563" y="1303" type="curve" smooth="yes"/>
      <point x="468" y="1303"/>
      <point x="399" y="1255"/>
      <point x="321" y="1198" type="curve"/>
      <point x="321" y="1053" type="line"/>
      <point x="386" y="1192"/>
      <point x="471" y="1301"/>
      <point x="601" y="1456" type="curve"/>
      <point x="445" y="1514" type="line"/>
      <point x="335" y="1366"/>
      <point x="254" y="1238"/>
      <point x="174" y="1070" type="curve"/>
      <point x="304" y="1010" type="line"/>
      <point x="390" y="1102"/>
      <point x="468" y="1140"/>
      <point x="557" y="1140" type="curve" smooth="yes"/>
      <point x="671" y="1140"/>
      <point x="725" y="1083"/>
      <point x="725" y="1019" type="curve" smooth="yes"/>
      <point x="725" y="936"/>
      <point x="634" y="841"/>
      <point x="465" y="841" type="curve"/>
      <point x="432" y="684" type="line"/>
      <point x="481" y="690"/>
      <point x="535" y="696"/>
      <point x="588" y="696" type="curve" smooth="yes"/>
      <point x="813" y="696"/>
      <point x="918" y="575"/>
      <point x="918" y="448" type="curve" smooth="yes"/>
      <point x="918" y="308"/>
      <point x="790" y="160"/>
      <point x="556" y="160" type="curve" smooth="yes"/>
      <point x="339" y="160"/>
      <point x="255" y="257"/>
      <point x="255" y="336" type="curve" smooth="yes"/>
      <point x="255" y="389"/>
      <point x="294" y="434"/>
      <point x="355" y="434" type="curve" smooth="yes"/>
      <point x="419" y="434"/>
      <point x="461" y="392"/>
      <point x="461" y="339" type="curve" smooth="yes"/>
      <point x="461" y="283"/>
      <point x="416" y="216"/>
      <point x="303" y="170" type="curve"/>
      <point x="401" y="73" type="line"/>
      <point x="575" y="138"/>
      <point x="627" y="251"/>
      <point x="627" y="356" type="curve" smooth="yes"/>
      <point x="627" y="483"/>
      <point x="520" y="599"/>
      <point x="362" y="599" type="curve" smooth="yes"/>
      <point x="185" y="599"/>
      <point x="90" y="476"/>
      <point x="90" y="341" type="curve" smooth="yes"/>
      <point x="90" y="177"/>
      <point x="231" y="-5"/>
    </contour>
  </outline>
</glyph>
<glyph name="four-kirat" format="2">
  <advance width="1124"/>
  <unicode hex="16D74"/>
  <outline>
    <contour>
      <point x="556" y="160" type="curve" smooth="yes"/>
      <point x="701" y="160"/>
      <point x="869" y="246"/>
      <point x="869" y="423" type="curve" smooth="yes"/>
      <point x="869" y="646"/>
      <point x="486" y="927"/>
      <point x="486" y="1187" type="curve" smooth="yes"/>
      <point x="486" y="1373"/>
      <point x="618" y="1489"/>
      <point x="780" y="1489" type="curve" smooth="yes"/>
      <point x="935" y="1489"/>
      <point x="1029" y="1367"/>
      <point x="1029" y="1238" type="curve" smooth="yes"/>
      <point x="1029" y="1077"/>
      <point x="894" y="956"/>
      <point x="702" y="956" type="curve" smooth="yes"/>
      <point x="528" y="956"/>
      <point x="308" y="1056"/>
      <point x="101" y="1318" type="curve"/>
      <point x="209" y="1446" type="line"/>
      <point x="358" y="1220"/>
      <point x="554" y="1122"/>
      <point x="699" y="1122" type="curve" smooth="yes"/>
      <point x="795" y="1122"/>
      <point x="864" y="1163"/>
      <point x="864" y="1230" type="curve" smooth="yes"/>
      <point x="864" y="1290"/>
      <point x="818" y="1324"/>
      <point x="770" y="1324" type="curve" smooth="yes"/>
      <point x="718" y="1324"/>
      <point x="664" y="1284"/>
      <point x="664" y="1192" type="curve" smooth="yes"/>
      <point x="664" y="947"/>
      <point x="1034" y="728"/>
      <point x="1034" y="427" type="curve" smooth="yes"/>
      <point x="1034" y="128"/>
      <point x="789" y="-5"/>
      <point x="535" y="-5" type="curve" smooth="yes"/>
      <point x="231" y="-5"/>
      <point x="90" y="177"/>
      <point x="90" y="341" type="curve" smooth="yes"/>
      <point x="90" y="476"/>
      <point x="185" y="599"/>
      <point x="362" y="599" type="curve" smooth="yes"/>
      <point x="520" y="599"/>
      <point x="627" y="483"/>
      <point x="627" y="356" type="curve" smooth="yes"/>
      <point x="627" y="251"/>
      <point x="575" y="138"/>
      <point x="401" y="73" type="curve"/>
      <point x="303" y="170" type="line"/>
      <point x="416" y="216"/>
      <point x="461" y="283"/>
      <point x="461" y="339" type="curve" smooth="yes"/>
      <point x="461" y="392"/>
      <point x="419" y="434"/>
      <point x="355" y="434" type="curve" smooth="yes"/>
      <point x="294" y="434"/>
      <point x="255" y="389"/>
      <point x="255" y="336" type="curve" smooth="yes"/>
      <point x="255" y="257"/>
      <point x="339" y="160"/>
    </contour>
  </outline>
</glyph>
<glyph name="five-kirat" format="2">
  <advance width="1225"/>
  <unicode hex="16D75"/>
  <outline>
    <contour>
      <point x="655" y="1307"/>
      <point x="469" y="949"/>
      <point x="469" y="568" type="curve" smooth="yes"/>
      <point x="469" y="328"/>
      <point x="562" y="169"/>
      <point x="720" y="169" type="curve" smooth="yes"/>
      <point x="825" y="169"/>
      <point x="951" y="234"/>
      <point x="951" y="336" type="curve" smooth="yes"/>
      <point x="951" y="373"/>
      <point x="925" y="424"/>
      <point x="870" y="424" type="curve" smooth="yes"/>
      <point x="821" y="424"/>
      <point x="794" y="387"/>
      <point x="794" y="344" type="curve" smooth="yes"/>
      <point x="794" y="297"/>
      <point x="825" y="243"/>
      <point x="892" y="220" type="curve"/>
      <point x="789" y="123" type="line"/>
      <point x="659" y="177"/>
      <point x="602" y="273"/>
      <point x="602" y="364" type="curve" smooth="yes"/>
      <point x="602" y="485"/>
      <point x="702" y="599"/>
      <point x="863" y="599" type="curve" smooth="yes"/>
      <point x="1042" y="599"/>
      <point x="1135" y="475"/>
      <point x="1135" y="339" type="curve" smooth="yes"/>
      <point x="1135" y="132"/>
      <point x="935" y="-7"/>
      <point x="725" y="-7" type="curve" smooth="yes"/>
      <point x="407" y="-7"/>
      <point x="284" y="250"/>
      <point x="284" y="551" type="curve" smooth="yes"/>
      <point x="284" y="977"/>
      <point x="494" y="1492"/>
      <point x="775" y="1492" type="curve" smooth="yes"/>
      <point x="903" y="1492"/>
      <point x="1019" y="1412"/>
      <point x="1019" y="1255" type="curve" smooth="yes"/>
      <point x="1019" y="1063"/>
      <point x="850" y="977"/>
      <point x="685" y="977" type="curve" smooth="yes"/>
      <point x="483" y="977"/>
      <point x="233" y="1080"/>
      <point x="90" y="1316" type="curve"/>
      <point x="214" y="1464" type="line"/>
      <point x="389" y="1150"/>
      <point x="834" y="1084"/>
      <point x="834" y="1243" type="curve" smooth="yes"/>
      <point x="834" y="1287"/>
      <point x="803" y="1307"/>
      <point x="771" y="1307" type="curve" smooth="yes"/>
    </contour>
  </outline>
</glyph>
<glyph name="six-kirat" format="2">
  <advance width="1227"/>
  <unicode hex="16D76"/>
  <outline>
    <contour>
      <point x="879" y="933" type="curve"/>
      <point x="978" y="991" type="line"/>
      <point x="978" y="1485" type="line"/>
      <point x="806" y="1485" type="line"/>
      <point x="820" y="1421"/>
      <point x="823" y="1367"/>
      <point x="823" y="1299" type="curve" smooth="yes"/>
      <point x="823" y="1208"/>
      <point x="823" y="1094"/>
      <point x="822" y="1062" type="curve"/>
      <point x="952" y="1062" type="line"/>
      <point x="862" y="1122"/>
      <point x="755" y="1152"/>
      <point x="648" y="1152" type="curve" smooth="yes"/>
      <point x="380" y="1152"/>
      <point x="113" y="964"/>
      <point x="113" y="590" type="curve" smooth="yes"/>
      <point x="113" y="286"/>
      <point x="303" y="-5"/>
      <point x="682" y="-5" type="curve" smooth="yes"/>
      <point x="986" y="-5"/>
      <point x="1127" y="177"/>
      <point x="1127" y="341" type="curve" smooth="yes"/>
      <point x="1127" y="476"/>
      <point x="1032" y="599"/>
      <point x="855" y="599" type="curve" smooth="yes"/>
      <point x="697" y="599"/>
      <point x="590" y="483"/>
      <point x="590" y="356" type="curve" smooth="yes"/>
      <point x="590" y="251"/>
      <point x="642" y="138"/>
      <point x="816" y="73" type="curve"/>
      <point x="914" y="170" type="line"/>
      <point x="801" y="216"/>
      <point x="756" y="283"/>
      <point x="756" y="339" type="curve" smooth="yes"/>
      <point x="756" y="392"/>
      <point x="798" y="434"/>
      <point x="862" y="434" type="curve" smooth="yes"/>
      <point x="923" y="434"/>
      <point x="962" y="389"/>
      <point x="962" y="336" type="curve" smooth="yes"/>
      <point x="962" y="257"/>
      <point x="878" y="160"/>
      <point x="661" y="160" type="curve" smooth="yes"/>
      <point x="426" y="160"/>
      <point x="278" y="370"/>
      <point x="278" y="579" type="curve" smooth="yes"/>
      <point x="278" y="853"/>
      <point x="465" y="986"/>
      <point x="663" y="986" type="curve" smooth="yes"/>
      <point x="735" y="986"/>
      <point x="811" y="968"/>
    </contour>
  </outline>
</glyph>
<glyph name="seven-kirat" format="2">
  <advance width="1341"/>
  <unicode hex="16D77"/>
  <outline>
    <contour>
      <point x="382" y="-5" type="curve" smooth="yes"/>
      <point x="517" y="-5"/>
      <point x="641" y="97"/>
      <point x="641" y="296" type="curve" smooth="yes"/>
      <point x="641" y="513"/>
      <point x="480" y="997"/>
      <point x="480" y="1166" type="curve" smooth="yes"/>
      <point x="480" y="1281"/>
      <point x="534" y="1324"/>
      <point x="583" y="1324" type="curve" smooth="yes"/>
      <point x="626" y="1324"/>
      <point x="665" y="1293"/>
      <point x="665" y="1246" type="curve" smooth="yes"/>
      <point x="665" y="1195"/>
      <point x="617" y="1138"/>
      <point x="503" y="1138" type="curve" smooth="yes"/>
      <point x="365" y="1138"/>
      <point x="225" y="1199"/>
      <point x="134" y="1440" type="curve"/>
      <point x="20" y="1302" type="line"/>
      <point x="143" y="1066"/>
      <point x="303" y="973"/>
      <point x="495" y="973" type="curve" smooth="yes"/>
      <point x="724" y="973"/>
      <point x="830" y="1118"/>
      <point x="830" y="1255" type="curve" smooth="yes"/>
      <point x="830" y="1405"/>
      <point x="715" y="1489"/>
      <point x="594" y="1489" type="curve" smooth="yes"/>
      <point x="459" y="1489"/>
      <point x="316" y="1384"/>
      <point x="316" y="1146" type="curve" smooth="yes"/>
      <point x="316" y="981"/>
      <point x="476" y="495"/>
      <point x="476" y="299" type="curve" smooth="yes"/>
      <point x="476" y="207"/>
      <point x="428" y="160"/>
      <point x="379" y="160" type="curve" smooth="yes"/>
      <point x="324" y="160"/>
      <point x="267" y="206"/>
      <point x="267" y="325" type="curve" smooth="yes"/>
      <point x="267" y="484"/>
      <point x="385" y="684"/>
      <point x="684" y="684" type="curve" smooth="yes"/>
      <point x="982" y="684"/>
      <point x="1093" y="502"/>
      <point x="1093" y="352" type="curve" smooth="yes"/>
      <point x="1093" y="249"/>
      <point x="1040" y="161"/>
      <point x="958" y="161" type="curve" smooth="yes"/>
      <point x="894" y="161"/>
      <point x="862" y="201"/>
      <point x="862" y="240" type="curve" smooth="yes"/>
      <point x="862" y="281"/>
      <point x="895" y="321"/>
      <point x="961" y="321" type="curve" smooth="yes"/>
      <point x="1019" y="321"/>
      <point x="1064" y="282"/>
      <point x="1096" y="219" type="curve"/>
      <point x="1213" y="322" type="line"/>
      <point x="1166" y="434"/>
      <point x="1063" y="486"/>
      <point x="961" y="486" type="curve" smooth="yes"/>
      <point x="828" y="486"/>
      <point x="697" y="398"/>
      <point x="697" y="238" type="curve" smooth="yes"/>
      <point x="697" y="117"/>
      <point x="791" y="-4"/>
      <point x="956" y="-4" type="curve" smooth="yes"/>
      <point x="1152" y="-4"/>
      <point x="1251" y="169"/>
      <point x="1251" y="347" type="curve" smooth="yes"/>
      <point x="1251" y="690"/>
      <point x="988" y="850"/>
      <point x="683" y="850" type="curve" smooth="yes"/>
      <point x="284" y="850"/>
      <point x="102" y="566"/>
      <point x="102" y="325" type="curve" smooth="yes"/>
      <point x="102" y="148"/>
      <point x="200" y="-5"/>
    </contour>
  </outline>
</glyph>
<glyph name="eight-kirat" format="2">
  <advance width="929"/>
  <unicode hex="16D78"/>
  <outline>
    <contour>
      <point x="542" y="713" type="curve" smooth="yes"/>
      <point x="683" y="848"/>
      <point x="812" y="962"/>
      <point x="812" y="1147" type="curve" smooth="yes"/>
      <point x="812" y="1375"/>
      <point x="631" y="1489"/>
      <point x="449" y="1489" type="curve" smooth="yes"/>
      <point x="276" y="1489"/>
      <point x="91" y="1372"/>
      <point x="91" y="1138" type="curve" smooth="yes"/>
      <point x="91" y="1062"/>
      <point x="109" y="989"/>
      <point x="144" y="936" type="curve"/>
      <point x="299" y="1027" type="line"/>
      <point x="282" y="1065"/>
      <point x="274" y="1105"/>
      <point x="274" y="1139" type="curve" smooth="yes"/>
      <point x="274" y="1251"/>
      <point x="367" y="1310"/>
      <point x="448" y="1310" type="curve" smooth="yes"/>
      <point x="539" y="1310"/>
      <point x="628" y="1253"/>
      <point x="628" y="1132" type="curve" smooth="yes"/>
      <point x="628" y="1010"/>
      <point x="532" y="943"/>
      <point x="410" y="835" type="curve" smooth="yes"/>
      <point x="208" y="655"/>
      <point x="90" y="534"/>
      <point x="90" y="339" type="curve" smooth="yes"/>
      <point x="90" y="111"/>
      <point x="273" y="-3"/>
      <point x="464" y="-3" type="curve" smooth="yes"/>
      <point x="654" y="-3"/>
      <point x="839" y="114"/>
      <point x="839" y="348" type="curve" smooth="yes"/>
      <point x="839" y="424"/>
      <point x="822" y="497"/>
      <point x="790" y="550" type="curve"/>
      <point x="634" y="459" type="line"/>
      <point x="648" y="421"/>
      <point x="656" y="381"/>
      <point x="656" y="347" type="curve" smooth="yes"/>
      <point x="656" y="235"/>
      <point x="563" y="176"/>
      <point x="465" y="176" type="curve" smooth="yes"/>
      <point x="365" y="176"/>
      <point x="274" y="233"/>
      <point x="274" y="354" type="curve" smooth="yes"/>
      <point x="274" y="486"/>
      <point x="371" y="549"/>
    </contour>
  </outline>
</glyph>
<glyph name="nine-kirat" format="2">
  <advance width="825"/>
  <unicode hex="16D79"/>
  <outline>
    <contour>
      <point x="261" y="980" type="curve" smooth="yes"/>
      <point x="261" y="1272"/>
      <point x="367" y="1325"/>
      <point x="439" y="1325" type="curve" smooth="yes"/>
      <point x="504" y="1325"/>
      <point x="566" y="1283"/>
      <point x="566" y="1213" type="curve" smooth="yes"/>
      <point x="566" y="1153"/>
      <point x="503" y="1111"/>
      <point x="435" y="1111" type="curve" smooth="yes"/>
      <point x="352" y="1111"/>
      <point x="260" y="1172"/>
      <point x="260" y="1336" type="curve"/>
      <point x="178" y="1177" type="line"/>
      <point x="208" y="1023"/>
      <point x="313" y="947"/>
      <point x="445" y="947" type="curve" smooth="yes"/>
      <point x="589" y="947"/>
      <point x="731" y="1037"/>
      <point x="731" y="1212" type="curve" smooth="yes"/>
      <point x="731" y="1393"/>
      <point x="584" y="1489"/>
      <point x="435" y="1489" type="curve" smooth="yes"/>
      <point x="281" y="1489"/>
      <point x="96" y="1387"/>
      <point x="96" y="973" type="curve" smooth="yes"/>
      <point x="96" y="594"/>
      <point x="320" y="332"/>
      <point x="487" y="144" type="curve"/>
      <point x="573" y="172" type="line"/>
      <point x="543" y="167"/>
      <point x="457" y="165"/>
      <point x="362" y="165" type="curve" smooth="yes"/>
      <point x="268" y="165"/>
      <point x="166" y="167"/>
      <point x="102" y="172" type="curve"/>
      <point x="148" y="0" type="line"/>
      <point x="329" y="0"/>
      <point x="548" y="0"/>
      <point x="708" y="0" type="curve"/>
      <point x="718" y="20"/>
      <point x="727" y="72"/>
      <point x="735" y="97" type="curve"/>
      <point x="435" y="442"/>
      <point x="261" y="645"/>
    </contour>
  </outline>
</glyph>
<glyph name="ha-kirat.alt" format="2">
  <advance width="1188"/>
  <outline>
    <contour>
      <point x="1037" y="629"/>
      <point x="734" y="483"/>
      <point x="418" y="483" type="curve" smooth="yes"/>
      <point x="314" y="483"/>
      <point x="208" y="509"/>
      <point x="111" y="542" type="curve"/>
      <point x="167" y="700" type="line"/>
      <point x="248" y="665"/>
      <point x="354" y="646"/>
      <point x="459" y="646" type="curve" smooth="yes"/>
      <point x="737" y="646"/>
      <point x="872" y="760"/>
      <point x="872" y="887" type="curve" smooth="yes"/>
      <point x="872" y="962"/>
      <point x="807" y="1056"/>
      <point x="561" y="1056" type="curve" smooth="yes"/>
      <point x="385" y="1056"/>
      <point x="315" y="999"/>
      <point x="315" y="956" type="curve" smooth="yes"/>
      <point x="315" y="930"/>
      <point x="340" y="910"/>
      <point x="383" y="910" type="curve" smooth="yes"/>
      <point x="612" y="910"/>
      <point x="871" y="1295"/>
      <point x="940" y="1402" type="curve"/>
      <point x="912" y="1295" type="line"/>
      <point x="128" y="1295" type="line"/>
      <point x="80" y="1460" type="line"/>
      <point x="1108" y="1460" type="line"/>
      <point x="1100" y="1353" type="line"/>
      <point x="986" y="1178"/>
      <point x="705" y="750"/>
      <point x="385" y="750" type="curve" smooth="yes"/>
      <point x="235" y="750"/>
      <point x="153" y="842"/>
      <point x="153" y="945" type="curve" smooth="yes"/>
      <point x="153" y="1073"/>
      <point x="281" y="1216"/>
      <point x="568" y="1216" type="curve" smooth="yes"/>
      <point x="843" y="1216"/>
      <point x="1037" y="1094"/>
      <point x="1037" y="894" type="curve" smooth="yes"/>
    </contour>
    <contour>
      <point x="892" y="30"/>
      <point x="775" y="-12"/>
      <point x="612" y="-12" type="curve" smooth="yes"/>
      <point x="338" y="-12"/>
      <point x="191" y="148"/>
      <point x="191" y="311" type="curve" smooth="yes"/>
      <point x="191" y="483"/>
      <point x="353" y="660"/>
      <point x="697" y="660" type="curve" smooth="yes"/>
      <point x="810" y="660"/>
      <point x="927" y="640"/>
      <point x="1035" y="612" type="curve"/>
      <point x="984" y="457" type="line"/>
      <point x="909" y="482"/>
      <point x="799" y="502"/>
      <point x="677" y="502" type="curve" smooth="yes"/>
      <point x="458" y="502"/>
      <point x="357" y="408"/>
      <point x="357" y="317" type="curve" smooth="yes"/>
      <point x="357" y="233"/>
      <point x="443" y="153"/>
      <point x="614" y="153" type="curve" smooth="yes"/>
      <point x="738" y="153"/>
      <point x="852" y="190"/>
      <point x="928" y="255" type="curve"/>
      <point x="1024" y="117" type="line"/>
    </contour>
  </outline>
</glyph>
<glyph name="ta-kirat.alt" format="2">
  <advance width="1288"/>
  <outline>
    <contour>
      <point x="167" y="1196" type="line"/>
      <point x="183" y="1094"/>
      <point x="251" y="1045"/>
      <point x="368" y="1045" type="curve" smooth="yes"/>
      <point x="527" y="1045"/>
      <point x="775" y="1136"/>
      <point x="1101" y="1312" type="curve"/>
      <point x="1018" y="1349" type="line"/>
      <point x="1036" y="876"/>
      <point x="1044" y="651"/>
      <point x="1044" y="304" type="curve" smooth="yes"/>
      <point x="1044" y="213"/>
      <point x="1043" y="125"/>
      <point x="1041" y="0" type="curve"/>
      <point x="1208" y="0" type="line"/>
      <point x="1176" y="1433" type="line"/>
      <point x="1090" y="1488" type="line"/>
      <point x="694" y="1281"/>
      <point x="493" y="1210"/>
      <point x="379" y="1210" type="curve" smooth="yes"/>
      <point x="267" y="1210"/>
      <point x="231" y="1278"/>
      <point x="192" y="1355" type="curve"/>
      <point x="50" y="1252" type="line"/>
      <point x="162" y="823"/>
      <point x="280" y="413"/>
      <point x="425" y="0" type="curve"/>
      <point x="608" y="0" type="line"/>
      <point x="320" y="702"/>
      <point x="315" y="992"/>
      <point x="222" y="1255" type="curve"/>
    </contour>
  </outline>
</glyph>
